<svg version="1.1" id="Слой_1" xmlns="http://www.w3.org/2000/svg" x="0" y="0" viewBox="0 0 584.6 963" xml:space="preserve"><style>.st0{fill:#fff}</style><path d="M0 0h584.6v963l-288-161.5L0 963z"/><path class="st0" d="M149.2 360.9l-9.1-28.6c-.8-4.6-3-8.8-6.4-11.9v-.2H145c-.1 1.9.2 3.8.9 5.6l11.6 36.1 9.1-29.5c1.5-4.6 3-9.8-1.2-12v-.2h11c-.3 2.7.1 5.4 1.1 7.9l10.8 33.6 8.7-28.4c1.4-4.6 4-10.7-2.1-12.8v-.3h11.8l-16.3 53.3c-7.1-4.9-7.7-4.6-10.2-12.5l-8.5-26.7-12.1 39.2c-7.1-5.2-7.7-4.6-10.4-12.6zm71.9-42.1v20.5c2.9-3.2 7.1-5 11.4-4.9 10.7 0 13.3 6.4 13.3 14v14.1c0 3.6-.5 6.4 2.9 8.4v.2h-12.6v-.2c3.4-2 2.9-4.6 2.9-8.4v-11.8c0-6.3-2-11.2-8.7-11.2s-9.2 3.8-9.2 10.8v12.2c0 3.6-.5 6.4 3 8.4v.2h-12.8v-.2c3.4-2 3-4.6 3-8.4v-33.8c0-3.6.5-6.4-3-8.4v-.2h5.1c1.6.3 3.4-.2 4.7-1.3zm34.8 6.9c.1-2.6 2.4-4.7 5-4.6 2.5 0 4.6 2 4.6 4.6v.2c.1 2.6-2 4.8-4.6 4.9-2.7 0-5-2.2-5-4.9v-.2zm8.7 8.5v28.3c0 3.6-.5 6.4 3 8.4v.2h-12.8v-.2c3.4-2 3-4.6 3-8.4V344c0-3.6.5-6.3-3-8.3h4.6c1.8.1 3.6-.4 5.2-1.5zm26.9 32.8c1.1-.1 2.1-.3 3.1-.8l-4.1 5.5c-.8.3-1.6.4-2.5.4-12 0-10.9-12.4-10.9-15.4v-16.2h-5.3v-2.8c7.3-1.2 9.1-6.7 9.1-13.7h3.3v11.5h7.3c1 .1 2-.1 2.9-.5h.2v7.1h-.4c-1.5-1.4-3.5-1.9-5.5-1.6h-4.6V356c.2 3-.9 11 7.4 11zm25.3-27.4c-4.9-.3-9.2 3.2-10 8h20c-.6-5-5-8.6-10-8zm5.2 27.3c4.5.1 8.9-1.3 12.5-4l-3.9 7.3c-3.4 1.4-7.1 2-10.7 2-12.8-.1-21.9-8.4-21.9-19.2-.2-10.1 7.8-18.4 17.9-18.7h1.5c9.2-.4 17 6.6 17.4 15.8v1.8h-28.4c-.3 8 6 14.7 14 15 .6.2 1.1.2 1.6 0zm23-32.5h.2c.1 1.4.5 2.7 1 4l9.1 23.6 7.1-18.3c1.1-2.8 3-6.5-.7-8.1h10.1v1.2c.2 1.2.6 2.4 1.1 3.6l8 21.9 7.2-18.3c1-2.6 3.1-6.2-1.1-8.1h10.4l-15.5 36.7c-4-1.5-6.9-5-7.9-9.1l-6.7-17.9-10.6 27c-4.1-1.4-7.3-4.9-8.4-9.1l-8.5-21.9c-.6-2.4-2.1-4.4-4.1-5.8h2c2.6.2 5.1-.2 7.3-1.4zm58.4-8.7c.1-2.7 2.4-4.7 5.1-4.6 2.5 0 4.6 2 4.6 4.6v.2c.1 2.6-2 4.8-4.6 4.9-2.8 0-5-2.2-5.1-5v-.1zm8.7 8.5v28.3c0 3.6-.5 6.4 2.9 8.4v.2h-12.8v-.2c3.4-2 2.9-4.6 2.9-8.4V344c0-3.6.5-6.3-2.9-8.3h4.6c1.9.2 3.8-.3 5.3-1.5zm18.9-15.4h.2v43.6c0 3.6-.5 6.4 2.9 8.4v.2h-12.9v-.2c3.3-2 2.9-4.6 2.9-8.4v-33.8c0-3.6.5-6.4-2.9-8.4v-.2h4.6c1.9.5 3.8 0 5.2-1.2zm19.1 0h.2v43.6c0 3.6-.5 6.4 2.8 8.4v.2h-12.7v-.2c3.3-2 2.9-4.6 2.9-8.4v-33.8c0-3.6.5-6.4-2.9-8.4v-.2h4.6c1.8.4 3.7 0 5.1-1.2zM165.8 127.6L232.3 296h7.9l-70-177.4h-.1zm-10.2 21.9L213.4 296h7.9L160 140.5h-.2zm271.4-9h-.1L365.5 296h7.9l57.8-146.5zm-250.9-34.8L251.2 296h7.8L180.4 96.8h-.1zm240.7 12.9h-.2l-65.1 165.1-1.6 4.1-1.6-4.1L284.1 121h-.2l-3.9 9.8L345.3 296h9.2L421 127.6zm-142.2 26.2h-.1l-3.9 9.8L326.4 296h7.9zm9.5 71.7h-.2l-22.6 57.4 3.9 9.8h.1l22.6-57.4zm-9.5-23.9h-.1L251.9 250l3.8 9.8h.1l22.7-57.4zm-9.4-23.9h-.1l-22.7 57.4 3.9 9.8h.1l22.7-57.3z"/><path class="st0" d="M406.4 96.8l-54.9 139.1-1.6 4.1-1.6-4.1-54.8-138.8h-.1l-3.9 9.8 60.3 152.9h.2l60.8-154.1-4.2-8.9zm-336 305.7h11.4c-.1-1.6-.5-3-1-4.3-.5-1.2-1.2-2.2-1.9-3.1-.8-.8-1.7-1.4-2.8-1.8-1-.4-2.2-.6-3.4-.6-1.2 0-2.3.1-3.3.3-1 .2-1.8.5-2.4.9l-.9-2.6c.8-.5 1.8-.9 3.1-1.1 1.2-.3 2.5-.4 3.9-.4 1.7 0 3.3.3 4.7.8 1.5.5 2.7 1.4 3.8 2.5 1.1 1.2 1.9 2.6 2.5 4.5.6 1.8.9 4 .9 6.6s-.3 4.8-1 6.6c-.7 1.8-1.6 3.3-2.8 4.5s-2.5 2-4.1 2.5-3.2.8-4.9.8c-1.3 0-2.5-.1-3.5-.3-1-.2-1.9-.4-2.6-.7l.9-2.9c.6.3 1.4.5 2.4.7s2 .3 3.1.3 2.1-.2 3.2-.5 2-.9 2.9-1.7c.9-.8 1.6-1.9 2.2-3.2.6-1.3.9-2.9 1-4.8H70.4v-3zm25.1 6.8h-1.8v8.9h-3.2v-19.9h3.2v9l1.7-.6 6.4-8.4h3.5l-6.2 8-1.7 1.3 2.1 1.6 6.6 9h-4l-6.6-8.9zm27 7.6c-.8.6-1.7 1-2.8 1.3-1.1.3-2.2.5-3.4.5-1.5 0-2.8-.2-3.9-.7s-1.9-1.2-2.6-2.1-1.2-2-1.5-3.3-.5-2.7-.5-4.3c0-3.4.7-5.9 2.2-7.7 1.5-1.8 3.6-2.7 6.4-2.7 1.3 0 2.3.1 3.2.3.9.2 1.7.5 2.4.9l-.9 2.7c-.6-.3-1.3-.6-2-.8-.7-.2-1.5-.3-2.4-.3-3.8 0-5.6 2.5-5.6 7.6 0 1 .1 2 .3 2.9.2.9.5 1.7 1 2.4s1.1 1.3 1.8 1.7c.8.4 1.7.6 2.8.6 1 0 1.8-.1 2.6-.4.8-.3 1.4-.6 1.8-1l1.1 2.4zm16.3-15.8h-8.7v17.1h-3.2v-19.9H142v19.9h-3.2v-17.1zm23.8 15.5c-.8.6-1.8 1.1-3 1.5s-2.5.6-3.8.6c-1.5 0-2.8-.2-3.9-.7-1.1-.5-2-1.2-2.7-2.1s-1.2-2-1.6-3.3c-.3-1.3-.5-2.7-.5-4.3 0-3.4.8-6 2.3-7.7s3.7-2.7 6.5-2.7c.9 0 1.8.1 2.7.3.9.2 1.7.6 2.4 1.1.7.6 1.3 1.3 1.7 2.4.5 1 .7 2.4.7 4 0 .9-.1 1.8-.2 2.9h-12.7c0 1.2.1 2.2.4 3.1s.6 1.7 1.1 2.3c.5.6 1.2 1.1 2 1.4s1.8.5 3 .5c.9 0 1.8-.2 2.7-.5s1.6-.7 2-1.1l.9 2.3zm-6.8-16c-1.6 0-2.8.4-3.8 1.2-.9.8-1.5 2.2-1.7 4.2h9.8c0-2-.4-3.4-1.2-4.2-.6-.8-1.7-1.2-3.1-1.2zm12.5-2.3h2.2l.6 2.4h.2c.6-.9 1.4-1.6 2.4-2.1s2.1-.7 3.3-.7c2.6 0 4.6.8 5.9 2.3 1.3 1.6 1.9 4.1 1.9 7.7 0 1.7-.2 3.2-.7 4.5-.4 1.3-1.1 2.5-1.8 3.4-.8.9-1.8 1.6-2.9 2.1-1.1.5-2.4.8-3.8.8-1 0-1.8-.1-2.3-.2-.6-.1-1.2-.3-1.8-.6v8.3h-3.2v-27.9zm8 2.3c-1.3 0-2.4.4-3.2 1.1s-1.3 1.8-1.6 3.2v9.8c.5.4 1 .7 1.6.9.6.2 1.4.3 2.4.3 1.8 0 3.3-.7 4.3-2 1.1-1.4 1.6-3.4 1.6-6 0-1.1-.1-2.1-.3-3s-.5-1.6-.9-2.3c-.4-.6-.9-1.1-1.6-1.4-.5-.4-1.3-.6-2.3-.6zm25.5.5h-6.2v17.1h-3.2v-17.1h-6.2v-2.8h15.6v2.8zm6.3 4.8c.6-.1 1.2-.2 1.8-.2s1.1-.1 1.7-.1c1.3 0 2.5.2 3.4.5s1.6.7 2.2 1.3c.6.5.9 1.2 1.2 1.9.2.7.3 1.5.3 2.3 0 2.4-.7 4.2-2 5.2-1.3 1.1-3.5 1.6-6.5 1.6-1.7 0-3.5-.1-5.3-.2v-19.9h3.2v7.6zm0 9.5c1 .2 1.9.2 2.8.2 1.7 0 2.8-.3 3.5-1 .7-.6 1-1.6 1-2.8 0-1.1-.3-1.9-1-2.6-.6-.7-1.8-1-3.4-1h-1.5c-.5 0-1 .1-1.5.2l.1 7zm13.8-17.1h3.2v19.9h-3.2v-19.9zm19.9.1c.9-.1 1.9-.1 2.9-.2s2.3-.1 3.8-.1c2.6 0 4.5.4 5.6 1.2 1.1.8 1.7 2 1.7 3.7 0 .9-.3 1.8-.8 2.7-.5.9-1.4 1.5-2.7 2v.2c1.6.3 2.7.8 3.3 1.6s1 1.9 1 3.2c0 2.1-.7 3.6-2.2 4.5s-3.7 1.4-6.7 1.4c-1.1 0-2.1 0-3.1-.1s-1.9-.1-2.8-.2v-19.9zm7 8.3c.5 0 .9-.1 1.4-.2.4-.2.9-.4 1.2-.7s.6-.6.9-1c.2-.4.3-.8.3-1.2 0-1.1-.3-1.8-1-2.2-.6-.4-1.7-.6-3.3-.6h-2c-.5 0-1 .1-1.4.1v5.8h3.9zm-3.9 8.8c.5.1 1 .1 1.5.1h1.7c1.8 0 3.1-.3 4-.8s1.3-1.4 1.3-2.6c0-1-.4-1.7-1.1-2.3-.7-.6-2-.9-3.9-.9h-3.5v6.5zm39.4-6.1h-9v8.8h-3.2v-19.9h3.2v8.3h9v-8.3h3.2v19.9h-3.2v-8.8zm23.8 7.2c-.8.6-1.8 1.1-3 1.5s-2.5.6-3.8.6c-1.5 0-2.8-.2-3.9-.7s-2-1.2-2.7-2.1-1.2-2-1.6-3.3c-.3-1.3-.5-2.7-.5-4.3 0-3.4.8-6 2.3-7.7 1.5-1.8 3.7-2.7 6.5-2.7.9 0 1.8.1 2.7.3.9.2 1.7.6 2.4 1.1.7.6 1.3 1.3 1.7 2.4.4 1 .7 2.4.7 4 0 .9-.1 1.8-.2 2.9H296c0 1.2.1 2.2.4 3.1s.6 1.7 1.1 2.3c.5.6 1.2 1.1 2 1.4s1.8.5 3 .5c.9 0 1.8-.2 2.7-.5.9-.3 1.6-.7 2-1.1l.9 2.3zm-6.8-16c-1.6 0-2.8.4-3.8 1.2-.9.8-1.5 2.2-1.7 4.2h9.8c0-2-.4-3.4-1.2-4.2-.6-.8-1.7-1.2-3.1-1.2zm29.2 22.6h-2.1l-.6-5h-14.9l-.6 5h-2.1v-7.8h2.3c.2-.3.5-.8.8-1.6.3-.8.7-1.8 1-3.2.3-1.4.6-3.1.9-5.1s.4-4.4.5-7.2h12v17.1h2.9l-.1 7.8zm-6.1-7.8v-14.3h-6c-.1 1.1-.1 2.3-.3 3.6-.1 1.3-.3 2.6-.5 3.9s-.5 2.5-.9 3.7c-.3 1.2-.7 2.2-1.2 3l8.9.1zm10-17c.9-.1 1.9-.1 2.9-.2s2.3-.1 3.8-.1c2.6 0 4.5.4 5.6 1.2 1.1.8 1.7 2 1.7 3.7 0 .9-.3 1.8-.8 2.7-.5.9-1.4 1.5-2.7 2v.2c1.6.3 2.7.8 3.3 1.6.6.8 1 1.9 1 3.2 0 2.1-.7 3.6-2.2 4.5s-3.7 1.4-6.7 1.4c-1.1 0-2.1 0-3.1-.1s-1.9-.1-2.8-.2v-19.9zm7.1 8.3c.5 0 .9-.1 1.4-.2.5-.2.9-.4 1.2-.7.4-.3.6-.6.9-1 .2-.4.3-.8.3-1.2 0-1.1-.3-1.8-1-2.2-.6-.4-1.7-.6-3.3-.6h-2c-.5 0-1 .1-1.4.1v5.8h3.9zm-3.9 8.8c.5.1 1 .1 1.5.1h1.7c1.8 0 3.1-.3 4-.8s1.3-1.4 1.3-2.6c0-1-.4-1.7-1.1-2.3-.7-.6-2-.9-3.9-.9h-3.5v6.5zm29-9.1l.1-2.5h-.1l-1.6 2.5-8.9 11.7h-1.8v-19.8h3.2v12.1l-.1 2.3h.2l1.5-2.5 8.9-12h1.9v19.9h-3.2v-11.7h-.1zm15.7 3l-5.8 8.8h-3.7l6.3-9.1 1.4-1.2-2-1.5-5.2-8.1h3.4l5.5 8.6h2.1v-8.6h3.1v9l1.9-.6 5.5-8.4h3.3l-5.4 8.1-1.5 1.3 2 1.6 5.9 8.9h-3.8l-5.8-8.9h-2.1v8.9h-3.1v-9.3l-2 .5zm32.1-3l.1-2.5h-.1l-1.6 2.5-8.9 11.7h-1.8v-19.8h3.2v12.1l-.1 2.3h.2l1.5-2.5 8.9-12h1.9v19.9h-3.2v-11.7h-.1zm25.7 0l.2-3.8h-.2l-1.4 3.1-4.8 7.8h-1.1l-5-7.8-1.3-3.1h-.2l.3 3.7v11.8h-2.9v-19.8h3.1l5.6 8.9 1.2 2.3h.1l1.2-2.4 5.2-8.8h3.2v19.9h-3.2v-11.8zm8.1 1.9c0-3.4.7-5.9 2.2-7.7s3.6-2.7 6.5-2.7c1.5 0 2.8.2 3.9.7s2 1.2 2.7 2.1 1.2 2 1.6 3.3.5 2.7.5 4.3c0 3.4-.7 5.9-2.2 7.7-1.5 1.8-3.6 2.7-6.5 2.7-1.5 0-2.8-.2-3.9-.7s-2-1.2-2.7-2.1-1.2-2-1.6-3.3c-.3-1.4-.5-2.8-.5-4.3zm3.3 0c0 1 .1 2 .3 2.9.2.9.5 1.7.9 2.4s1 1.2 1.7 1.7c.7.4 1.5.6 2.5.6 3.6 0 5.4-2.5 5.4-7.6 0-1-.1-2-.3-2.9-.2-.9-.5-1.7-.9-2.4s-1-1.2-1.7-1.6-1.5-.6-2.5-.6c-3.6-.2-5.4 2.4-5.4 7.5zm32.6 8.6c-.8.6-1.7 1-2.8 1.3-1.1.3-2.2.5-3.4.5-1.5 0-2.8-.2-3.9-.7s-1.9-1.2-2.6-2.1-1.2-2-1.5-3.3-.5-2.7-.5-4.3c0-3.4.7-5.9 2.2-7.7s3.6-2.7 6.4-2.7c1.3 0 2.3.1 3.2.3.9.2 1.7.5 2.4.9l-.9 2.7c-.6-.3-1.3-.6-2-.8-.7-.2-1.5-.3-2.4-.3-3.8 0-5.6 2.5-5.6 7.6 0 1 .1 2 .3 2.9.2.9.5 1.7 1 2.4s1.1 1.3 1.8 1.7c.8.4 1.7.6 2.8.6 1 0 1.8-.1 2.6-.4.8-.3 1.4-.6 1.8-1l1.1 2.4zm16.4-15.8h-6.2v17.1h-3.2v-17.1h-6.2v-2.8h15.6v2.8zm15.6 5.3l.1-2.5h-.1l-1.6 2.5-8.9 11.7h-1.8v-19.8h3.2v12.1l-.1 2.3h.2l1.5-2.5 8.9-12h1.9v19.9h-3.3v-11.7zm-347.7 72.3l6.9 16.3 17.6 1.5c1.2.1 1.7 1.6.8 2.4l-13.4 11.6 4 17.3c.3 1.2-1 2.1-2.1 1.5l-15.2-9.1-15.2 9.1c-1.1.6-2.4-.3-2.1-1.5l4-17.3-13.4-11.6c-.9-.8-.4-2.3.8-2.4l17.6-1.5 6.9-16.3c.7-1.2 2.3-1.2 2.8 0zm62.6 0l6.9 16.3 17.6 1.5c1.2.1 1.7 1.6.8 2.4l-13.4 11.6 4 17.3c.3 1.2-1 2.1-2.1 1.5l-15.2-9.1-15.2 9.1c-1.1.6-2.4-.3-2.1-1.5l4-17.3-13.2-11.6c-.9-.8-.4-2.3.8-2.4l17.6-1.5 6.9-16.3c.5-1.2 2.1-1.2 2.6 0zm63.3 0l6.9 16.3 17.6 1.5c1.2.1 1.7 1.6.8 2.4l-13.4 11.6 4 17.3c.3 1.2-1 2.1-2.1 1.5l-15.2-9.1-15.2 9.1c-1.1.6-2.4-.3-2.1-1.5l4-17.3-13.4-11.6c-.9-.8-.4-2.3.8-2.4l17.6-1.5 6.9-16.3c.7-1.2 2.3-1.2 2.8 0zm63.3 0l6.9 16.3 17.6 1.5c1.2.1 1.7 1.6.8 2.4l-13.4 11.6 4 17.3c.3 1.2-1 2.1-2.1 1.5l-15.2-9.1-15.2 9.1c-1.1.6-2.4-.3-2.1-1.5l4-17.3-13.4-11.6c-.9-.8-.4-2.3.8-2.4l17.6-1.5 6.9-16.3c.8-1.2 2.4-1.2 2.8 0zm63.4 0l6.9 16.3 17.6 1.5c1.2.1 1.7 1.6.8 2.4l-13.4 11.6 4 17.3c.3 1.2-1 2.1-2.1 1.5l-15.2-9.1-15.2 9.1c-1.1.6-2.4-.3-2.1-1.5l4-17.3-13.2-11.6c-.9-.8-.4-2.3.8-2.4l17.6-1.5 6.9-16.3c.5-1.2 2.1-1.2 2.6 0zM81.7 618.4c0-8.1 1.7-14.3 5.1-18.6s8.3-6.5 14.6-6.5c3.4 0 6.4.6 8.9 1.8s4.6 2.9 6.2 5.1c1.6 2.2 2.9 4.8 3.6 7.9.8 3.1 1.2 6.5 1.2 10.3 0 8.1-1.7 14.3-5.2 18.6-3.4 4.3-8.4 6.5-14.7 6.5-3.4 0-6.3-.6-8.8-1.8s-4.5-2.9-6.2-5.1c-1.6-2.2-2.9-4.8-3.6-7.9s-1.1-6.5-1.1-10.3zm6.1 0c0 2.7.3 5.2.8 7.6.5 2.4 1.4 4.5 2.5 6.3s2.5 3.3 4.3 4.4c1.7 1.1 3.8 1.6 6.1 1.6 4.3 0 7.7-1.6 10.1-4.9 2.5-3.3 3.7-8.3 3.7-15.1 0-2.6-.3-5.2-.8-7.6-.5-2.4-1.4-4.6-2.5-6.4-1.1-1.8-2.6-3.3-4.3-4.4-1.7-1.1-3.8-1.6-6.2-1.6-4.3 0-7.6 1.6-10 4.9s-3.7 8.4-3.7 15.2zm58.4 24.5c-.8.3-1.6.4-2.5.5-.9 0-1.6.1-2.3.1-4.2 0-7.5-1.5-9.7-4.4-2.3-3-3.4-7.5-3.4-13.7 0-5.9 1.2-10.4 3.7-13.4s6.1-4.5 10.8-4.5c1.3 0 2.4.1 3.3.3v-13.6h5.3v13.7c.8-.1 1.6-.2 2.2-.3.6 0 1.3-.1 1.9-.1 4.6 0 8 1.3 10.3 4s3.5 7.1 3.5 13.2c0 2.9-.3 5.5-.9 7.9-.6 2.3-1.5 4.3-2.7 5.9-1.2 1.6-2.7 2.9-4.4 3.7-1.7.9-3.7 1.3-6 1.3-.4 0-1 0-1.8-.1s-1.5-.2-2-.4v13.5h-5.3v-13.6zm-3.4-4c.6 0 1.1 0 1.7-.1.6 0 1.2-.1 1.8-.3v-26.2c-.6-.1-1.1-.2-1.6-.2s-1.1-.1-1.8-.1c-2.9 0-5.1 1.1-6.7 3.2-1.6 2.2-2.4 5.5-2.4 10.1 0 1.9.2 3.7.5 5.4s.9 3.1 1.6 4.3c.7 1.2 1.7 2.2 2.8 2.8 1.3.8 2.6 1.1 4.1 1.1zm11.8-26.9h-1.5c-.4 0-1 .1-1.6.3v26.4c.5.1 1 .2 1.6.2h1.9c3 0 5.2-1.2 6.7-3.7s2.3-6 2.3-10.6c0-3.9-.7-7-2-9.3-1.6-2.2-4-3.3-7.4-3.3zm44.9 10.1l.2-4.3h-.2l-2.8 4.4-15.6 20.4h-3.2v-34.7h5.6v21.2l-.2 4.1h.3l2.7-4.3 15.6-21h3.3v34.7h-5.6v-20.5h-.1zm47.4 29.4h-3.8l-1-8.8h-26.4V608h5.6v29.8h15.1V608h5.6v29.8h5v13.7h-.1zm28.5-29.4l.2-4.3h-.2l-2.8 4.4-15.6 20.4h-3.2v-34.7h5.6v21.2l-.2 4.1h.3l2.7-4.3 15.6-21h3.3v34.7h-5.6l-.1-20.5zm15.7-11.6c1.8-1.1 3.8-1.8 6.1-2.4 2.3-.5 4.8-.8 7.3-.8 2.4 0 4.3.3 5.8 1 1.5.6 2.6 1.5 3.3 2.5s1.3 2.2 1.5 3.4c.3 1.2.4 2.5.4 3.7 0 2.8-.1 5.5-.2 8.1s-.2 5.1-.2 7.5c0 1.7.1 3.3.2 4.9.1 1.5.4 2.9.8 4.2H312l-1.5-4.9h-.3c-.4.6-.9 1.3-1.6 1.9-.6.6-1.4 1.2-2.3 1.7s-1.9.9-3.1 1.2-2.5.5-4 .5-2.9-.2-4.1-.7c-1.3-.5-2.4-1.1-3.3-2s-1.7-1.9-2.2-3.1c-.5-1.2-.8-2.6-.8-4.1 0-2 .4-3.7 1.2-5.1.8-1.4 2-2.5 3.5-3.3s3.3-1.4 5.4-1.7 4.4-.5 7-.5h1.9c.6 0 1.3 0 1.9.1.1-1.4.2-2.6.2-3.7 0-2.5-.5-4.3-1.5-5.3s-2.9-1.5-5.6-1.5c-.8 0-1.6.1-2.5.2s-1.8.3-2.8.5c-.9.2-1.9.5-2.7.8-.9.3-1.6.7-2.3 1l-1.4-4.1zm9.8 27.9c1.3 0 2.5-.2 3.5-.5s1.9-.8 2.6-1.3 1.4-1.1 1.8-1.8c.5-.6.8-1.3 1.1-1.9v-5.8c-.6 0-1.3-.1-2-.1h-2c-1.4 0-2.8.1-4.2.2-1.4.2-2.6.5-3.6.9s-1.9 1-2.5 1.8-.9 1.7-.9 2.9c0 1.6.6 3 1.7 4s2.7 1.6 4.5 1.6zm43.8-25.6h-10.1c-.1 1.9-.3 4-.4 6.3-.1 2.2-.3 4.5-.6 6.7s-.6 4.4-1.1 6.5-1.1 3.9-1.8 5.4c-.7 1.6-1.6 2.8-2.6 3.8-1 .9-2.3 1.4-3.7 1.4-.9 0-1.6 0-2.3-.1-.6-.1-1.2-.3-1.7-.5l.8-4.7c.6.2 1.2.3 1.8.3.9 0 1.8-.4 2.5-1.2s1.4-2.3 1.9-4.5c.6-2.2 1-5.2 1.4-9.1.4-3.9.6-9 .8-15.2h20.7v34.7h-5.6v-29.8zm21.8 8.4c1.1-.2 2.2-.3 3.2-.4 1-.1 2-.1 2.9-.1 2.4 0 4.4.3 6.1.8s3 1.3 4.1 2.2c1 .9 1.8 2 2.3 3.3s.7 2.6.7 4.1c0 4.2-1.3 7.3-3.8 9.2s-6.4 2.8-11.8 2.8c-3 0-6-.1-9.2-.4V608h5.6v13.2h-.1zm0 16.6c1.7.3 3.4.4 4.9.4 2.9 0 5.1-.6 6.5-1.7 1.4-1.1 2.1-2.7 2.1-4.8 0-1.8-.7-3.4-2-4.6-1.3-1.2-3.4-1.8-6.3-1.8-.8 0-1.6 0-2.6.1-.9 0-1.8.2-2.6.4v12zm47.9-10.5h-15.7v15.3h-5.6v-34.7h5.6v14.5h15.7v-14.5h5.6v34.7h-5.6v-15.3zm21.8-6.1c1.1-.2 2.2-.3 3.2-.4 1-.1 2-.1 2.9-.1 2.4 0 4.3.3 5.9.8s2.9 1.3 3.9 2.2 1.7 2 2 3.3c.4 1.3.6 2.6.6 4.1 0 4.2-1.2 7.3-3.5 9.2s-6.1 2.8-11.3 2.8c-3 0-6-.1-9.2-.4V608h5.6v13.2h-.1zm0 16.6c1.7.3 3.4.4 4.9.4 2.9 0 5-.6 6.1-1.7 1.2-1.1 1.7-2.7 1.7-4.8 0-1.8-.6-3.4-1.7-4.6s-3.1-1.8-5.9-1.8c-.8 0-1.6 0-2.6.1-.9 0-1.8.2-2.6.4v12h.1zm24-29.8h5.6v34.7h-5.6V608zm37.9 14.1l.2-4.3h-.2l-2.8 4.4-15.6 20.4h-3.2v-34.7h5.6v21.2l-.2 4.1h.3l2.7-4.3 15.6-21h3.3v34.7h-5.7v-20.5zm-13.7-28.2c.5 2.1 1.3 3.6 2.4 4.4 1.1.8 2.4 1.3 3.9 1.3s2.8-.4 4-1.3c1.2-.9 1.9-2.3 2.4-4.3l4.2 1.3c-.4 2.7-1.6 4.7-3.6 6.2-2 1.4-4.3 2.2-7 2.2-1.2 0-2.5-.2-3.7-.5s-2.3-.8-3.3-1.5c-1-.6-1.8-1.5-2.5-2.5s-1.2-2.2-1.4-3.6l4.6-1.7zM62.9 683.5c1.5-2.2 3.2-3.8 5.1-4.7s4.2-1.4 6.9-1.4c4.3 0 7.5 1.4 9.8 4.2s3.4 6.9 3.4 12.3c0 6.2-1.3 11-4 14.2s-6.4 4.8-11.1 4.8c-5.1 0-8.9-1.8-11.5-5.3-2.5-3.5-3.8-9-3.8-16.6 0-4 .2-7.4.6-10.2.4-2.8 1-5.2 1.7-7.1.8-1.9 1.7-3.5 2.8-4.6 1.1-1.2 2.3-2.1 3.7-2.7 1.4-.7 2.9-1.1 4.5-1.4 1.6-.3 3.4-.5 5.2-.7 2.4-.2 4.3-.5 5.7-.8 1.4-.3 2.5-.8 3.3-1.6l.6 5c-.5.4-1 .8-1.5 1-.6.3-1.2.5-2 .7s-1.7.3-2.8.5c-1.1.1-2.3.3-3.8.3-2 .1-3.7.4-5.2.7s-2.8 1-3.9 2-1.9 2.4-2.6 4.2c-.6 1.8-1.1 4.2-1.3 7.3h.2v-.1zm.6 11.3c0 1.8.2 3.4.6 5.1.4 1.6.9 3 1.7 4.3.8 1.2 1.7 2.2 2.9 2.9 1.2.7 2.6 1 4.2 1 3.2 0 5.6-1.1 7.1-3.4s2.3-5.7 2.3-10.2c0-1.8-.2-3.4-.5-4.9s-.8-2.8-1.5-3.9-1.6-1.9-2.6-2.5c-1.1-.6-2.3-.9-3.8-.9-3.6 0-6.2 1-7.9 3.2s-2.5 5.3-2.5 9.3zm33.4-17.4h3.8l1 4.2h.3c1.1-1.6 2.4-2.9 4.1-3.7 1.7-.9 3.6-1.3 5.8-1.3 4.6 0 8.1 1.4 10.3 4.1 2.3 2.7 3.4 7.2 3.4 13.4 0 2.9-.4 5.5-1.1 7.9-.8 2.3-1.8 4.3-3.2 5.9-1.4 1.6-3.1 2.9-5 3.7-2 .9-4.2 1.3-6.6 1.3-1.7 0-3.1-.1-4.1-.3s-2.1-.6-3.2-1.1v14.4h-5.6l.1-48.5zm14 4c-2.4 0-4.2.6-5.6 1.8s-2.3 3.1-2.9 5.6V706c.8.6 1.8 1.1 2.8 1.5 1.1.3 2.5.5 4.2.5 3.2 0 5.7-1.2 7.6-3.6 1.9-2.4 2.8-5.9 2.8-10.5 0-1.9-.2-3.6-.5-5.2-.3-1.5-.8-2.9-1.6-4-.7-1.1-1.6-1.9-2.8-2.5-.9-.5-2.3-.8-4-.8zm21.6 13.3c0-5.9 1.3-10.4 3.9-13.5 2.6-3.1 6.4-4.7 11.3-4.7 2.6 0 4.8.4 6.8 1.3 1.9.9 3.5 2.1 4.8 3.7 1.2 1.6 2.2 3.5 2.8 5.8.6 2.2.9 4.7.9 7.5 0 5.9-1.3 10.4-3.9 13.5-2.6 3.1-6.4 4.7-11.3 4.7-2.6 0-4.8-.4-6.8-1.3-1.9-.9-3.5-2.1-4.8-3.7-1.2-1.6-2.2-3.5-2.8-5.8-.6-2.3-.9-4.8-.9-7.5zm5.8 0c0 1.8.2 3.4.5 5.1.3 1.6.9 3 1.6 4.2.7 1.2 1.7 2.2 2.9 2.9s2.7 1.1 4.4 1.1c6.3 0 9.4-4.4 9.4-13.3 0-1.8-.2-3.5-.5-5.1s-.9-3-1.6-4.2c-.7-1.2-1.7-2.2-2.9-2.9s-2.7-1.1-4.4-1.1c-6.3-.1-9.4 4.4-9.4 13.3zm42.1 1.7h-3.2V712h-5.6v-34.7h5.6V693l3-1 11.1-14.7h6l-10.8 14-2.9 2.3 3.6 2.8 11.6 15.7h-6.9l-11.5-15.7zm49 12.9c-1.4 1.1-3.1 2-5.2 2.6-2.1.6-4.3 1-6.7 1-2.6 0-4.9-.4-6.9-1.3-1.9-.9-3.5-2.1-4.8-3.7-1.2-1.6-2.2-3.5-2.8-5.7s-.9-4.7-.9-7.5c0-5.9 1.3-10.4 4-13.5 2.6-3.1 6.4-4.7 11.3-4.7 1.6 0 3.1.2 4.7.5s3 1 4.2 2 2.3 2.3 3.1 4.1 1.2 4.1 1.2 7c0 1.5-.1 3.2-.4 5.1h-22.3c0 2 .2 3.8.6 5.4.4 1.6 1.1 2.9 1.9 4 .9 1.1 2 1.9 3.4 2.5s3.1.9 5.2.9c1.6 0 3.1-.3 4.7-.8 1.6-.6 2.8-1.2 3.5-1.9l2.2 4zm-11.9-27.9c-2.7 0-4.9.7-6.6 2.2-1.6 1.4-2.6 3.9-2.9 7.4h17.2c0-3.5-.7-6-2-7.4-1.4-1.5-3.3-2.2-5.7-2.2zm21.8-4h3.8l1 4.2h.3c1.1-1.6 2.4-2.9 4.1-3.7 1.7-.9 3.6-1.3 5.8-1.3 4.6 0 8.1 1.4 10.3 4.1 2.3 2.7 3.4 7.2 3.4 13.4 0 2.9-.4 5.5-1.1 7.9-.8 2.3-1.8 4.3-3.2 5.9-1.4 1.6-3.1 2.9-5 3.7-2 .9-4.2 1.3-6.6 1.3-1.7 0-3.1-.1-4.1-.3s-2.1-.6-3.2-1.1v14.4h-5.6v-48.5h.1zm14 4c-2.4 0-4.2.6-5.6 1.8-1.4 1.2-2.3 3.1-2.9 5.6V706c.8.6 1.8 1.1 2.8 1.5 1.1.3 2.5.5 4.2.5 3.2 0 5.7-1.2 7.6-3.6 1.9-2.4 2.8-5.9 2.8-10.5 0-1.9-.2-3.6-.5-5.2-.3-1.5-.8-2.9-1.6-4-.7-1.1-1.6-1.9-2.8-2.5-.9-.5-2.3-.8-4-.8zm63 .8H301V712h-5.6v-34.7h26.4V712h-5.6v-29.8h.1zm16.2-4.8h3.8l1 4.2h.3c1.1-1.6 2.4-2.9 4.1-3.7 1.7-.9 3.6-1.3 5.8-1.3 4.6 0 8.1 1.4 10.3 4.1 2.3 2.7 3.4 7.2 3.4 13.4 0 2.9-.4 5.5-1.1 7.9-.8 2.3-1.8 4.3-3.2 5.9-1.4 1.6-3.1 2.9-5 3.7-2 .9-4.2 1.3-6.6 1.3-1.7 0-3.1-.1-4.1-.3s-2.1-.6-3.2-1.1v14.4h-5.6v-48.5h.1zm14.1 4c-2.4 0-4.2.6-5.6 1.8s-2.3 3.1-2.9 5.6V706c.8.6 1.8 1.1 2.8 1.5 1.1.3 2.5.5 4.2.5 3.2 0 5.7-1.2 7.6-3.6 1.9-2.4 2.8-5.9 2.8-10.5 0-1.9-.2-3.6-.5-5.2-.3-1.5-.8-2.9-1.6-4-.7-1.1-1.6-1.9-2.8-2.5-1-.5-2.4-.8-4-.8zm21.5 13.3c0-5.9 1.3-10.4 3.9-13.5s6.4-4.7 11.3-4.7c2.6 0 4.8.4 6.8 1.3 1.9.9 3.5 2.1 4.8 3.7 1.2 1.6 2.2 3.5 2.8 5.8.6 2.2.9 4.7.9 7.5 0 5.9-1.3 10.4-3.9 13.5s-6.4 4.7-11.3 4.7c-2.6 0-4.8-.4-6.8-1.3s-3.5-2.1-4.8-3.7c-1.2-1.6-2.2-3.5-2.8-5.8-.6-2.3-.9-4.8-.9-7.5zm5.8 0c0 1.8.2 3.4.5 5.1.3 1.6.9 3 1.6 4.2s1.7 2.2 2.9 2.9c1.2.7 2.7 1.1 4.4 1.1 6.3 0 9.4-4.4 9.4-13.3 0-1.8-.2-3.5-.5-5.1s-.9-3-1.6-4.2-1.7-2.2-2.9-2.9c-1.2-.7-2.7-1.1-4.4-1.1-6.3-.1-9.4 4.4-9.4 13.3zm58.7 14.6c-1.4 1.1-3.1 2-5.2 2.6s-4.3 1-6.7 1c-2.6 0-4.9-.4-6.9-1.3s-3.5-2.1-4.8-3.7c-1.2-1.6-2.2-3.5-2.8-5.7-.6-2.2-.9-4.7-.9-7.5 0-5.9 1.3-10.4 4-13.5 2.6-3.1 6.4-4.7 11.3-4.7 1.6 0 3.1.2 4.7.5s3 1 4.2 2 2.3 2.3 3.1 4.1c.8 1.8 1.2 4.1 1.2 7 0 1.5-.1 3.2-.4 5.1h-22.3c0 2 .2 3.8.6 5.4.4 1.6 1.1 2.9 1.9 4 .9 1.1 2 1.9 3.4 2.5s3.1.9 5.2.9c1.6 0 3.1-.3 4.7-.8 1.6-.6 2.8-1.2 3.5-1.9l2.2 4zm-11.9-27.9c-2.7 0-4.9.7-6.6 2.2-1.6 1.4-2.6 3.9-2.9 7.4h17.2c0-3.5-.7-6-2-7.4-1.4-1.5-3.3-2.2-5.7-2.2zm30.6 15h-3.2V712h-5.6v-34.7h5.6V693l3-1 11.1-14.7h6l-10.8 14-2.9 2.3 3.6 2.8 11.6 15.7h-6.9l-11.5-15.7zm46.5-14.2h-10.9V712h-5.6v-29.8h-10.9v-4.9h27.3v4.9h.1zm5-2.3c1.8-1.1 3.8-1.8 6.1-2.4 2.3-.5 4.8-.8 7.3-.8 2.4 0 4.3.3 5.8 1 1.5.6 2.6 1.5 3.3 2.5.8 1 1.3 2.2 1.5 3.4.3 1.2.4 2.5.4 3.7 0 2.8-.1 5.5-.2 8.1-.1 2.6-.2 5.1-.2 7.5 0 1.7.1 3.3.2 4.9.1 1.5.4 2.9.8 4.2h-4.1l-1.5-4.9h-.3c-.4.6-.9 1.3-1.6 1.9-.6.6-1.4 1.2-2.3 1.7-.9.5-1.9.9-3.1 1.2-1.2.3-2.5.5-4 .5s-2.9-.2-4.1-.7-2.4-1.1-3.3-2-1.7-1.9-2.2-3.1c-.5-1.2-.8-2.6-.8-4.1 0-2 .4-3.7 1.2-5.1.8-1.4 2-2.5 3.5-3.3s3.3-1.4 5.4-1.7c2.1-.3 4.4-.5 7-.5h1.9c.6 0 1.3 0 1.9.1.1-1.4.2-2.6.2-3.7 0-2.5-.5-4.3-1.5-5.3s-2.9-1.5-5.6-1.5c-.8 0-1.6.1-2.5.2-.9.1-1.8.3-2.8.5-.9.2-1.9.5-2.7.8-.9.3-1.6.7-2.3 1l-1.4-4.1zm9.8 27.9c1.3 0 2.5-.2 3.5-.5s1.9-.8 2.6-1.3c.7-.5 1.4-1.1 1.8-1.8.5-.6.8-1.3 1.1-1.9v-5.8c-.6 0-1.3-.1-2-.1h-2c-1.4 0-2.8.1-4.2.2-1.4.2-2.6.5-3.6.9s-1.9 1-2.5 1.8-.9 1.7-.9 2.9c0 1.6.6 3 1.7 4 1.2 1 2.7 1.6 4.5 1.6z"/><path class="st0" d="M584.6 0h-.5v962.2L296.6 800.9.5 962.2V0H0v963l296.6-161.5 288 161.5V0z"/></svg>