<?xml version="1.0" encoding="utf-8"?>
<!-- Generator: Adobe Illustrator 22.1.0, SVG Export Plug-In . SVG Version: 6.00 Build 0)  -->
<svg version="1.1" id="Слой_1" xmlns="http://www.w3.org/2000/svg" xmlns:xlink="http://www.w3.org/1999/xlink" x="0px" y="0px"
	 viewBox="0 0 150.5 142.8" style="enable-background:new 0 0 150.5 142.8;" xml:space="preserve">
<style type="text/css">
	.st0{fill:#FFFFFF;}
</style>
<title>logo</title>
<g id="Слой_2_1_">
	<g id="Слой_1-2">
		<g>
			<path class="st0" d="M79.8,24.2v-1c-1-0.1-1.9-0.3-2.7-0.8c-0.7-0.4-1.3-0.9-1.8-1.5l-0.7,0.8c0.6,0.7,1.4,1.3,2.2,1.8
				C77.7,23.9,78.7,24.1,79.8,24.2z"/>
			<path class="st0" d="M60.1,121.8c-0.7,1.2-1.1,2.4-1.4,3.7c-0.6,2.7-0.6,5.5,0,8.2c0.3,1.3,0.7,2.6,1.4,3.7
				c0.6,1.1,1.5,2,2.5,2.8c1,0.7,2.1,1.1,3.2,1.2V140c-1-0.2-2-0.6-2.8-1.2c-0.8-0.7-1.5-1.5-2-2.5c-0.5-1-0.8-2.1-1-3.2
				c-0.2-1.2-0.3-2.3-0.3-3.5c0-1.2,0.1-2.4,0.3-3.5c0.2-1.1,0.5-2.2,1-3.2c0.5-0.9,1.2-1.8,2-2.4c0.8-0.6,1.7-1,2.7-1.2v-1.3
				c-1.1,0.1-2.2,0.4-3.2,1.1C61.5,119.7,60.7,120.7,60.1,121.8z"/>
			<path class="st0" d="M87.3,20.4c0.7-1.1,1.2-2.3,1.5-3.6c0.3-1.4,0.5-2.8,0.5-4.2c0-1.5-0.1-2.9-0.4-4.4
				c-0.3-1.3-0.7-2.5-1.4-3.7c-0.6-1-1.5-1.9-2.5-2.6c-1-0.6-2.2-1-3.4-1v1.1c0.8,0,1.6,0.2,2.3,0.5c0.7,0.3,1.3,0.8,1.9,1.4
				c0.5,0.6,0.9,1.2,1.2,2c0.3,0.7,0.6,1.5,0.7,2.2c0.1,0.7,0.3,1.5,0.3,2.3c0.1,0.8,0.1,1.4,0.1,2.1c0,1.2-0.1,2.4-0.4,3.6
				c-0.2,1.1-0.6,2.3-1.2,3.3c-0.5,1-1.2,1.8-2.1,2.5c-0.8,0.6-1.8,1-2.9,1.1v1.1c1.2-0.1,2.3-0.5,3.3-1.2
				C85.8,22.3,86.7,21.5,87.3,20.4z"/>
			<path class="st0" d="M80.1,140.3c1.2,0.6,2.6,1,4,1v-1.1c-1.2,0-2.3-0.4-3.3-1c-0.9-0.6-1.7-1.3-2.4-2.2l-0.9,0.9
				C78.2,138.9,79.1,139.7,80.1,140.3z"/>
			<path class="st0" d="M73.1,137.4c0.6-1.2,1.1-2.4,1.4-3.7c0.6-2.7,0.6-5.4,0-8.1c-0.3-1.3-0.7-2.5-1.4-3.7
				c-0.6-1.1-1.4-2-2.4-2.7c-0.9-0.7-2-1.1-3.2-1.2v1.2c1,0.1,1.9,0.5,2.6,1.1c0.8,0.7,1.5,1.5,2,2.5c0.5,1,0.9,2.1,1.1,3.3
				c0.5,2.4,0.5,4.8,0,7.1c-0.2,1.1-0.6,2.2-1.1,3.3c-0.5,1-1.2,1.8-2,2.5c-0.8,0.6-1.7,1-2.6,1.1v1.2c1.2-0.1,2.3-0.5,3.2-1.2
				C71.7,139.3,72.5,138.4,73.1,137.4z"/>
			<polygon class="st0" points="78.1,120.9 78.1,128.1 84.1,128.1 84.1,126.8 79.3,126.8 79.3,120.9 			"/>
			<path class="st0" d="M90.4,139.3c0.7-0.6,1.2-1.4,1.5-2.3c0.4-0.9,0.6-1.9,0.6-2.9c0-1-0.2-2.1-0.6-3.1c-0.3-0.8-0.9-1.6-1.5-2.3
				c-0.7-0.6-1.4-1.1-2.3-1.4c-0.8-0.3-1.6-0.5-2.4-0.5v1.2c1.4,0.1,2.8,0.7,3.8,1.7c1.1,1.2,1.7,2.8,1.6,4.4c0,0.8-0.1,1.6-0.4,2.3
				c-0.3,0.7-0.7,1.3-1.2,1.9c-0.5,0.5-1.1,1-1.8,1.3c-0.6,0.3-1.3,0.5-2,0.5v1.1c0.8-0.1,1.6-0.3,2.4-0.6
				C88.9,140.3,89.7,139.9,90.4,139.3z"/>
			<rect x="78.1" y="118.2" class="st0" width="12.8" height="1.1"/>
			<path class="st0" d="M80.6,15c0.6,0,1.3-0.1,1.9-0.2c0.6-0.1,1.1-0.3,1.6-0.6c0.5-0.2,0.9-0.5,1.3-0.8c0.3-0.2,0.6-0.5,0.9-0.7
				V12c0-0.2,0-0.4,0-0.6l-0.5,0.4c-0.4,0.4-0.9,0.7-1.4,1c-0.5,0.3-1.1,0.6-1.7,0.8c-0.6,0.2-1.2,0.3-1.9,0.3
				c-1.6,0.1-3.2-0.4-4.4-1.4c-1.3-1.1-1.9-2.8-1.8-4.5c0-0.6,0.1-1.3,0.4-1.9c0.2-0.7,0.6-1.3,1-1.8c0.5-0.6,1-1.1,1.7-1.5
				c0.7-0.4,1.4-0.6,2.1-0.7v-1c-0.9,0.1-1.8,0.3-2.6,0.7c-0.8,0.4-1.6,0.9-2.2,1.6c-0.6,0.6-1,1.4-1.3,2.2
				c-0.3,0.8-0.4,1.6-0.4,2.5c0,1.1,0.2,2.1,0.6,3.1c0.4,0.8,0.9,1.6,1.6,2.2c0.7,0.6,1.4,1,2.3,1.3C78.6,14.9,79.6,15,80.6,15z"/>
			<g>
				<path class="st0" d="M39.4,82.5v-1.3c-1.9,0-3.6-0.8-4.9-2.2c-1.3-1.6-1.9-3.6-1.8-5.6v-14h-1.3v14.1c-0.1,2.4,0.6,4.7,2.1,6.6
					C35.1,81.6,37.2,82.5,39.4,82.5z"/>
				<path class="st0" d="M45.9,79c-1.3,1.3-3,2.1-4.8,2.2v1.3c2.2,0,4.3-0.9,5.9-2.4c1.5-1.9,2.2-4.2,2.1-6.6V59.3h-1.3v14
					C47.8,75.4,47.2,77.4,45.9,79z"/>
			</g>
			<g>
				<rect x="66.1" y="1.1" class="st0" width="1.3" height="22.7"/>
				<polygon class="st0" points="64.5,2 61.2,6.2 62.1,7.1 64.5,4 				"/>
			</g>
			<g>
				<rect x="5.8" y="81" class="st0" width="9.8" height="1.1"/>
				<rect x="2.9" y="59.3" class="st0" width="1.3" height="22.7"/>
			</g>
			<g>
				<polygon class="st0" points="105.2,72.1 113.9,82.1 115.5,82.1 106,71.3 				"/>
				<rect x="99.8" y="59.3" class="st0" width="1.3" height="22.7"/>
				<polygon class="st0" points="102.7,72.3 114.5,59.3 112.9,59.3 102.7,70.6 				"/>
			</g>
			<g>
				<polygon class="st0" points="139.2,69.8 139.9,70.8 147.8,59.3 146.3,59.3 				"/>
				<polygon class="st0" points="137.5,82.1 138.8,82.1 138.8,72.1 130.1,59.3 128.6,59.3 137.5,72.3 				"/>
			</g>
			<g>
				<path class="st0" d="M76.5,59.7v1.1c1.3,0.1,2.6,0.4,3.7,1c1.1,0.5,2,1.3,2.8,2.3l1.1-0.7c-0.9-1.1-2-1.9-3.2-2.6
					C79.5,60.1,78,59.8,76.5,59.7z"/>
				<path class="st0" d="M67.6,63.3c-1,1.1-1.7,2.3-2.2,3.6c-1.1,3-1.1,6.2,0,9.2c0.5,1.3,1.3,2.6,2.2,3.6c1,1,2.1,1.9,3.4,2.5
					c1.2,0.6,2.5,0.9,3.8,1v-1.1c-2.4-0.2-4.7-1.4-6.3-3.2c-0.9-1-1.5-2.1-2-3.3c-0.9-2.7-0.9-5.6,0-8.2c0.5-1.2,1.1-2.3,2-3.3
					c0.8-0.9,1.8-1.7,2.9-2.2c1-0.5,2.2-0.9,3.3-1v-1c-1.3,0.1-2.6,0.5-3.8,1C69.7,61.4,68.6,62.2,67.6,63.3z"/>
				<path class="st0" d="M84.1,79.5L83,78.8c-0.8,1-1.7,1.8-2.8,2.3c-1.1,0.6-2.4,0.9-3.7,1v1.1c1.5,0,3-0.4,4.3-1.1
					C82.1,81.5,83.2,80.6,84.1,79.5z"/>
			</g>
			<polygon class="st0" points="1.2,51.9 0,51.9 0,0 56.8,0 56.8,1.2 1.2,1.2 			"/>
			<polygon class="st0" points="56.8,142.8 0,142.8 0,89.5 1.2,89.5 1.2,141.6 56.8,141.6 			"/>
			<polygon class="st0" points="150.5,142.8 93.9,142.8 93.9,141.6 149.3,141.6 149.3,89.5 150.5,89.5 			"/>
			<polygon class="st0" points="150.5,51.9 149.3,51.9 149.3,1.2 93.9,1.2 93.9,0 150.5,0 			"/>
		</g>
	</g>
</g>
</svg>
