<?xml version="1.0" encoding="utf-8"?>
<!-- Generator: Adobe Illustrator 22.1.0, SVG Export Plug-In . SVG Version: 6.00 Build 0)  -->
<svg version="1.1" id="Слой_1" xmlns="http://www.w3.org/2000/svg" xmlns:xlink="http://www.w3.org/1999/xlink" x="0px" y="0px"
	 viewBox="0 0 584.6 963" style="enable-background:new 0 0 584.6 963;" xml:space="preserve">
<style type="text/css">
	.st0{fill:#FFFFFF;}
</style>
<g>
	<polygon points="0,0 584.6,0 584.6,963 296.6,801.5 0,963 	"/>
	<g>
		<title>Whitewill logo</title>
		<path class="st0" d="M149.2,360.9l-9.1-28.6c-0.8-4.6-3-8.8-6.4-11.9v-0.2H145c-0.1,1.9,0.2,3.8,0.9,5.6l11.6,36.1l9.1-29.5
			c1.5-4.6,3-9.8-1.2-12v-0.2h11c-0.3,2.7,0.1,5.4,1.1,7.9l10.8,33.6l8.7-28.4c1.4-4.6,4-10.7-2.1-12.8v-0.3h11.8l-16.3,53.3
			c-7.1-4.9-7.7-4.6-10.2-12.5l-8.5-26.7l-12.1,39.2C152.5,368.3,151.9,368.9,149.2,360.9z"/>
		<path class="st0" d="M221.1,318.8L221.1,318.8v20.5c2.9-3.2,7.1-5,11.4-4.9c10.7,0,13.3,6.4,13.3,14v14.1c0,3.6-0.5,6.4,2.9,8.4
			v0.2h-12.6v-0.2c3.4-2,2.9-4.6,2.9-8.4v-11.8c0-6.3-2-11.2-8.7-11.2s-9.2,3.8-9.2,10.8v12.2c0,3.6-0.5,6.4,3,8.4v0.2h-12.8v-0.2
			c3.4-2,3-4.6,3-8.4v-33.8c0-3.6,0.5-6.4-3-8.4v-0.2h5.1C218,320.4,219.8,319.9,221.1,318.8z"/>
		<path class="st0" d="M255.9,325.7c0.1-2.6,2.4-4.7,5-4.6c2.5,0,4.6,2,4.6,4.6c0,0.1,0,0.2,0,0.2c0.1,2.6-2,4.8-4.6,4.9
			c-2.7,0-5-2.2-5-4.9C255.9,325.8,255.9,325.7,255.9,325.7z M264.6,334.2L264.6,334.2v28.3c0,3.6-0.5,6.4,3,8.4v0.2h-12.8v-0.2
			c3.4-2,3-4.6,3-8.4V344c0-3.6,0.5-6.3-3-8.3l0,0h4.6C261.2,335.8,263,335.3,264.6,334.2L264.6,334.2z"/>
		<path class="st0" d="M291.5,367c1.1-0.1,2.1-0.3,3.1-0.8l-4.1,5.5c-0.8,0.3-1.6,0.4-2.5,0.4c-12,0-10.9-12.4-10.9-15.4v-16.2h-5.3
			v-2.8c7.3-1.2,9.1-6.7,9.1-13.7h3.3v11.5h7.3c1,0.1,2-0.1,2.9-0.5h0.2v7.1h-0.4c-1.5-1.4-3.5-1.9-5.5-1.6h-4.6V356
			C284.3,359,283.2,367,291.5,367z"/>
		<path class="st0" d="M316.8,339.6c-4.9-0.3-9.2,3.2-10,8h20C326.2,342.6,321.8,339,316.8,339.6z M322,366.9
			c4.5,0.1,8.9-1.3,12.5-4l0,0l-3.9,7.3c-3.4,1.4-7.1,2-10.7,2c-12.8-0.1-21.9-8.4-21.9-19.2c-0.2-10.1,7.8-18.4,17.9-18.7
			c0.5,0,1,0,1.5,0c9.2-0.4,17,6.6,17.4,15.8c0,0.6,0,1.2,0,1.8h-28.4c-0.3,8,6,14.7,14,15C321,367.1,321.5,367.1,322,366.9
			L322,366.9z"/>
		<path class="st0" d="M345,334.4h0.2c0.1,1.4,0.5,2.7,1,4l9.1,23.6l7.1-18.3c1.1-2.8,3-6.5-0.7-8.1l0,0h10.1v1.2
			c0.2,1.2,0.6,2.4,1.1,3.6l8,21.9l7.2-18.3c1-2.6,3.1-6.2-1.1-8.1l0,0h10.4l-15.5,36.7c-4-1.5-6.9-5-7.9-9.1l-6.7-17.9l-10.6,27
			c-4.1-1.4-7.3-4.9-8.4-9.1l-8.5-21.9c-0.6-2.4-2.1-4.4-4.1-5.8l0,0h2C340.3,336,342.8,335.6,345,334.4z"/>
		<path class="st0" d="M403.4,325.7c0.1-2.7,2.4-4.7,5.1-4.6c2.5,0,4.6,2,4.6,4.6c0,0.1,0,0.2,0,0.2c0.1,2.6-2,4.8-4.6,4.9
			c-2.8,0-5-2.2-5.1-5V325.7z M412.1,334.2L412.1,334.2v28.3c0,3.6-0.5,6.4,2.9,8.4v0.2h-12.8v-0.2c3.4-2,2.9-4.6,2.9-8.4V344
			c0-3.6,0.5-6.3-2.9-8.3l0,0h4.6C408.7,335.9,410.6,335.4,412.1,334.2z"/>
		<path class="st0" d="M431,318.8h0.2v43.6c0,3.6-0.5,6.4,2.9,8.4v0.2h-12.9v-0.2c3.3-2,2.9-4.6,2.9-8.4v-33.8
			c0-3.6,0.5-6.4-2.9-8.4V320h4.6C427.7,320.5,429.6,320,431,318.8z"/>
		<path class="st0" d="M450.1,318.8h0.2v43.6c0,3.6-0.5,6.4,2.8,8.4v0.2h-12.7v-0.2c3.3-2,2.9-4.6,2.9-8.4v-33.8
			c0-3.6,0.5-6.4-2.9-8.4V320h4.6C446.8,320.4,448.7,320,450.1,318.8z"/>
		<polygon class="st0" points="165.8,127.6 232.3,296 240.2,296 170.2,118.6 170.1,118.6 		"/>
		<polygon class="st0" points="155.6,149.5 213.4,296 221.3,296 160,140.5 159.8,140.5 		"/>
		<polygon class="st0" points="427,140.5 426.9,140.5 365.5,296 373.4,296 431.2,149.5 		"/>
		<polygon class="st0" points="176.1,105.7 251.2,296 259,296 180.4,96.8 180.3,96.8 		"/>
		<polygon class="st0" points="416.8,118.6 416.6,118.6 351.5,283.7 349.9,287.8 348.3,283.7 284.1,121 283.9,121 280,130.8 
			345.3,296 354.5,296 421,127.6 		"/>
		<polygon class="st0" points="274.6,144.8 274.5,144.8 270.6,154.6 326.4,296 334.3,296 		"/>
		<polygon class="st0" points="284.1,216.5 283.9,216.5 261.3,273.9 265.2,283.7 265.3,283.7 287.9,226.3 		"/>
		<polygon class="st0" points="274.6,192.6 274.5,192.6 251.9,250 255.7,259.8 255.8,259.8 278.5,202.4 		"/>
		<polygon class="st0" points="265.2,168.7 265.1,168.7 242.4,226.1 246.3,235.9 246.4,235.9 269.1,178.6 		"/>
		<polygon class="st0" points="406.4,96.8 351.5,235.9 349.9,240 348.3,235.9 293.5,97.1 293.4,97.1 289.5,106.9 349.8,259.8 
			350,259.8 410.8,105.7 406.6,96.8 		"/>
	</g>
	<g>
		<path class="st0" d="M70.4,402.5h11.4c-0.1-1.6-0.5-3-1-4.3c-0.5-1.2-1.2-2.2-1.9-3.1c-0.8-0.8-1.7-1.4-2.8-1.8
			c-1-0.4-2.2-0.6-3.4-0.6c-1.2,0-2.3,0.1-3.3,0.3c-1,0.2-1.8,0.5-2.4,0.9l-0.9-2.6c0.8-0.5,1.8-0.9,3.1-1.1
			c1.2-0.3,2.5-0.4,3.9-0.4c1.7,0,3.3,0.3,4.7,0.8c1.5,0.5,2.7,1.4,3.8,2.5c1.1,1.2,1.9,2.6,2.5,4.5c0.6,1.8,0.9,4,0.9,6.6
			s-0.3,4.8-1,6.6c-0.7,1.8-1.6,3.3-2.8,4.5s-2.5,2-4.1,2.5s-3.2,0.8-4.9,0.8c-1.3,0-2.5-0.1-3.5-0.3c-1-0.2-1.9-0.4-2.6-0.7
			l0.9-2.9c0.6,0.3,1.4,0.5,2.4,0.7s2,0.3,3.1,0.3s2.1-0.2,3.2-0.5s2-0.9,2.9-1.7c0.9-0.8,1.6-1.9,2.2-3.2c0.6-1.3,0.9-2.9,1-4.8
			H70.4V402.5z"/>
		<path class="st0" d="M95.5,409.3h-1.8v8.9h-3.2v-19.9h3.2v9l1.7-0.6l6.4-8.4h3.5l-6.2,8l-1.7,1.3l2.1,1.6l6.6,9h-4L95.5,409.3z"/>
		<path class="st0" d="M122.5,416.9c-0.8,0.6-1.7,1-2.8,1.3c-1.1,0.3-2.2,0.5-3.4,0.5c-1.5,0-2.8-0.2-3.9-0.7s-1.9-1.2-2.6-2.1
			s-1.2-2-1.5-3.3s-0.5-2.7-0.5-4.3c0-3.4,0.7-5.9,2.2-7.7c1.5-1.8,3.6-2.7,6.4-2.7c1.3,0,2.3,0.1,3.2,0.3c0.9,0.2,1.7,0.5,2.4,0.9
			l-0.9,2.7c-0.6-0.3-1.3-0.6-2-0.8c-0.7-0.2-1.5-0.3-2.4-0.3c-3.8,0-5.6,2.5-5.6,7.6c0,1,0.1,2,0.3,2.9c0.2,0.9,0.5,1.7,1,2.4
			c0.5,0.7,1.1,1.3,1.8,1.7c0.8,0.4,1.7,0.6,2.8,0.6c1,0,1.8-0.1,2.6-0.4c0.8-0.3,1.4-0.6,1.8-1L122.5,416.9z"/>
		<path class="st0" d="M138.8,401.1h-8.7v17.1h-3.2v-19.9H142v19.9h-3.2V401.1L138.8,401.1z"/>
		<path class="st0" d="M162.6,416.6c-0.8,0.6-1.8,1.1-3,1.5s-2.5,0.6-3.8,0.6c-1.5,0-2.8-0.2-3.9-0.7c-1.1-0.5-2-1.2-2.7-2.1
			s-1.2-2-1.6-3.3c-0.3-1.3-0.5-2.7-0.5-4.3c0-3.4,0.8-6,2.3-7.7s3.7-2.7,6.5-2.7c0.9,0,1.8,0.1,2.7,0.3c0.9,0.2,1.7,0.6,2.4,1.1
			c0.7,0.6,1.3,1.3,1.7,2.4c0.5,1,0.7,2.4,0.7,4c0,0.9-0.1,1.8-0.2,2.9h-12.7c0,1.2,0.1,2.2,0.4,3.1s0.6,1.7,1.1,2.3
			c0.5,0.6,1.2,1.1,2,1.4s1.8,0.5,3,0.5c0.9,0,1.8-0.2,2.7-0.5s1.6-0.7,2-1.1L162.6,416.6z M155.8,400.6c-1.6,0-2.8,0.4-3.8,1.2
			c-0.9,0.8-1.5,2.2-1.7,4.2h9.8c0-2-0.4-3.4-1.2-4.2C158.3,401,157.2,400.6,155.8,400.6z"/>
		<path class="st0" d="M168.3,398.3h2.2l0.6,2.4h0.2c0.6-0.9,1.4-1.6,2.4-2.1s2.1-0.7,3.3-0.7c2.6,0,4.6,0.8,5.9,2.3
			c1.3,1.6,1.9,4.1,1.9,7.7c0,1.7-0.2,3.2-0.7,4.5c-0.4,1.3-1.1,2.5-1.8,3.4c-0.8,0.9-1.8,1.6-2.9,2.1c-1.1,0.5-2.4,0.8-3.8,0.8
			c-1,0-1.8-0.1-2.3-0.2c-0.6-0.1-1.2-0.3-1.8-0.6v8.3h-3.2L168.3,398.3L168.3,398.3z M176.3,400.6c-1.3,0-2.4,0.4-3.2,1.1
			s-1.3,1.8-1.6,3.2v9.8c0.5,0.4,1,0.7,1.6,0.9c0.6,0.2,1.4,0.3,2.4,0.3c1.8,0,3.3-0.7,4.3-2c1.1-1.4,1.6-3.4,1.6-6
			c0-1.1-0.1-2.1-0.3-3s-0.5-1.6-0.9-2.3c-0.4-0.6-0.9-1.1-1.6-1.4C178.1,400.8,177.3,400.6,176.3,400.6z"/>
		<path class="st0" d="M201.8,401.1h-6.2v17.1h-3.2v-17.1h-6.2v-2.8h15.6L201.8,401.1L201.8,401.1z"/>
		<path class="st0" d="M208.1,405.9c0.6-0.1,1.2-0.2,1.8-0.2s1.1-0.1,1.7-0.1c1.3,0,2.5,0.2,3.4,0.5s1.6,0.7,2.2,1.3
			c0.6,0.5,0.9,1.2,1.2,1.9c0.2,0.7,0.3,1.5,0.3,2.3c0,2.4-0.7,4.2-2,5.2c-1.3,1.1-3.5,1.6-6.5,1.6c-1.7,0-3.5-0.1-5.3-0.2v-19.9
			h3.2L208.1,405.9L208.1,405.9z M208.1,415.4c1,0.2,1.9,0.2,2.8,0.2c1.7,0,2.8-0.3,3.5-1c0.7-0.6,1-1.6,1-2.8c0-1.1-0.3-1.9-1-2.6
			c-0.6-0.7-1.8-1-3.4-1c-0.5,0-0.9,0-1.5,0c-0.5,0-1,0.1-1.5,0.2L208.1,415.4L208.1,415.4z M221.9,398.3h3.2v19.9h-3.2V398.3z"/>
		<path class="st0" d="M241.8,398.4c0.9-0.1,1.9-0.1,2.9-0.2s2.3-0.1,3.8-0.1c2.6,0,4.5,0.4,5.6,1.2c1.1,0.8,1.7,2,1.7,3.7
			c0,0.9-0.3,1.8-0.8,2.7c-0.5,0.9-1.4,1.5-2.7,2v0.2c1.6,0.3,2.7,0.8,3.3,1.6s1,1.9,1,3.2c0,2.1-0.7,3.6-2.2,4.5s-3.7,1.4-6.7,1.4
			c-1.1,0-2.1,0-3.1-0.1s-1.9-0.1-2.8-0.2V398.4z M248.8,406.7c0.5,0,0.9-0.1,1.4-0.2c0.4-0.2,0.9-0.4,1.2-0.7s0.6-0.6,0.9-1
			c0.2-0.4,0.3-0.8,0.3-1.2c0-1.1-0.3-1.8-1-2.2c-0.6-0.4-1.7-0.6-3.3-0.6c-0.8,0-1.5,0-2,0s-1,0.1-1.4,0.1v5.8L248.8,406.7
			L248.8,406.7z M244.9,415.5c0.5,0.1,1,0.1,1.5,0.1s1.1,0,1.7,0c1.8,0,3.1-0.3,4-0.8s1.3-1.4,1.3-2.6c0-1-0.4-1.7-1.1-2.3
			c-0.7-0.6-2-0.9-3.9-0.9h-3.5V415.5z"/>
		<path class="st0" d="M284.3,409.4h-9v8.8h-3.2v-19.9h3.2v8.3h9v-8.3h3.2v19.9h-3.2V409.4z"/>
		<path class="st0" d="M308.1,416.6c-0.8,0.6-1.8,1.1-3,1.5s-2.5,0.6-3.8,0.6c-1.5,0-2.8-0.2-3.9-0.7s-2-1.2-2.7-2.1s-1.2-2-1.6-3.3
			c-0.3-1.3-0.5-2.7-0.5-4.3c0-3.4,0.8-6,2.3-7.7c1.5-1.8,3.7-2.7,6.5-2.7c0.9,0,1.8,0.1,2.7,0.3c0.9,0.2,1.7,0.6,2.4,1.1
			c0.7,0.6,1.3,1.3,1.7,2.4c0.4,1,0.7,2.4,0.7,4c0,0.9-0.1,1.8-0.2,2.9H296c0,1.2,0.1,2.2,0.4,3.1s0.6,1.7,1.1,2.3
			c0.5,0.6,1.2,1.1,2,1.4s1.8,0.5,3,0.5c0.9,0,1.8-0.2,2.7-0.5c0.9-0.3,1.6-0.7,2-1.1L308.1,416.6z M301.3,400.6
			c-1.6,0-2.8,0.4-3.8,1.2c-0.9,0.8-1.5,2.2-1.7,4.2h9.8c0-2-0.4-3.4-1.2-4.2C303.8,401,302.7,400.6,301.3,400.6z"/>
		<path class="st0" d="M330.5,423.2h-2.1l-0.6-5h-14.9l-0.6,5h-2.1v-7.8h2.3c0.2-0.3,0.5-0.8,0.8-1.6c0.3-0.8,0.7-1.8,1-3.2
			c0.3-1.4,0.6-3.1,0.9-5.1s0.4-4.4,0.5-7.2h12v17.1h2.9L330.5,423.2L330.5,423.2z M324.4,415.4v-14.3h-6c-0.1,1.1-0.1,2.3-0.3,3.6
			c-0.1,1.3-0.3,2.6-0.5,3.9s-0.5,2.5-0.9,3.7c-0.3,1.2-0.7,2.2-1.2,3L324.4,415.4L324.4,415.4z"/>
		<path class="st0" d="M334.4,398.4c0.9-0.1,1.9-0.1,2.9-0.2s2.3-0.1,3.8-0.1c2.6,0,4.5,0.4,5.6,1.2c1.1,0.8,1.7,2,1.7,3.7
			c0,0.9-0.3,1.8-0.8,2.7c-0.5,0.9-1.4,1.5-2.7,2v0.2c1.6,0.3,2.7,0.8,3.3,1.6c0.6,0.8,1,1.9,1,3.2c0,2.1-0.7,3.6-2.2,4.5
			s-3.7,1.4-6.7,1.4c-1.1,0-2.1,0-3.1-0.1s-1.9-0.1-2.8-0.2L334.4,398.4L334.4,398.4z M341.5,406.7c0.5,0,0.9-0.1,1.4-0.2
			c0.5-0.2,0.9-0.4,1.2-0.7c0.4-0.3,0.6-0.6,0.9-1c0.2-0.4,0.3-0.8,0.3-1.2c0-1.1-0.3-1.8-1-2.2c-0.6-0.4-1.7-0.6-3.3-0.6
			c-0.8,0-1.5,0-2,0s-1,0.1-1.4,0.1v5.8L341.5,406.7L341.5,406.7z M337.6,415.5c0.5,0.1,1,0.1,1.5,0.1s1.1,0,1.7,0
			c1.8,0,3.1-0.3,4-0.8s1.3-1.4,1.3-2.6c0-1-0.4-1.7-1.1-2.3c-0.7-0.6-2-0.9-3.9-0.9h-3.5V415.5z"/>
		<path class="st0" d="M366.6,406.4l0.1-2.5h-0.1l-1.6,2.5l-8.9,11.7h-1.8v-19.8h3.2v12.1l-0.1,2.3h0.2l1.5-2.5l8.9-12h1.9v19.9
			h-3.2v-11.7H366.6L366.6,406.4z"/>
		<path class="st0" d="M382.3,409.4l-5.8,8.8h-3.7l6.3-9.1l1.4-1.2l-2-1.5l-5.2-8.1h3.4l5.5,8.6h2.1v-8.6h3.1v9l1.9-0.6l5.5-8.4h3.3
			l-5.4,8.1l-1.5,1.3l2,1.6l5.9,8.9h-3.8l-5.8-8.9h-2.1v8.9h-3.1v-9.3L382.3,409.4z"/>
		<path class="st0" d="M414.4,406.4l0.1-2.5h-0.1l-1.6,2.5l-8.9,11.7h-1.8v-19.8h3.2v12.1l-0.1,2.3h0.2l1.5-2.5l8.9-12h1.9v19.9
			h-3.2v-11.7H414.4L414.4,406.4z"/>
		<path class="st0" d="M440.1,406.4l0.2-3.8h-0.2l-1.4,3.1l-4.8,7.8h-1.1l-5-7.8l-1.3-3.1h-0.2l0.3,3.7v11.8h-2.9v-19.8h3.1l5.6,8.9
			l1.2,2.3h0.1l1.2-2.4l5.2-8.8h3.2v19.9h-3.2L440.1,406.4L440.1,406.4z"/>
		<path class="st0" d="M448.2,408.3c0-3.4,0.7-5.9,2.2-7.7s3.6-2.7,6.5-2.7c1.5,0,2.8,0.2,3.9,0.7s2,1.2,2.7,2.1s1.2,2,1.6,3.3
			s0.5,2.7,0.5,4.3c0,3.4-0.7,5.9-2.2,7.7c-1.5,1.8-3.6,2.7-6.5,2.7c-1.5,0-2.8-0.2-3.9-0.7s-2-1.2-2.7-2.1s-1.2-2-1.6-3.3
			C448.4,411.2,448.2,409.8,448.2,408.3z M451.5,408.3c0,1,0.1,2,0.3,2.9c0.2,0.9,0.5,1.7,0.9,2.4c0.4,0.7,1,1.2,1.7,1.7
			c0.7,0.4,1.5,0.6,2.5,0.6c3.6,0,5.4-2.5,5.4-7.6c0-1-0.1-2-0.3-2.9c-0.2-0.9-0.5-1.7-0.9-2.4c-0.4-0.7-1-1.2-1.7-1.6
			s-1.5-0.6-2.5-0.6C453.3,400.6,451.5,403.2,451.5,408.3z"/>
		<path class="st0" d="M484.1,416.9c-0.8,0.6-1.7,1-2.8,1.3c-1.1,0.3-2.2,0.5-3.4,0.5c-1.5,0-2.8-0.2-3.9-0.7s-1.9-1.2-2.6-2.1
			s-1.2-2-1.5-3.3s-0.5-2.7-0.5-4.3c0-3.4,0.7-5.9,2.2-7.7s3.6-2.7,6.4-2.7c1.3,0,2.3,0.1,3.2,0.3c0.9,0.2,1.7,0.5,2.4,0.9l-0.9,2.7
			c-0.6-0.3-1.3-0.6-2-0.8c-0.7-0.2-1.5-0.3-2.4-0.3c-3.8,0-5.6,2.5-5.6,7.6c0,1,0.1,2,0.3,2.9c0.2,0.9,0.5,1.7,1,2.4
			c0.5,0.7,1.1,1.3,1.8,1.7c0.8,0.4,1.7,0.6,2.8,0.6c1,0,1.8-0.1,2.6-0.4c0.8-0.3,1.4-0.6,1.8-1L484.1,416.9z"/>
		<path class="st0" d="M500.5,401.1h-6.2v17.1h-3.2v-17.1h-6.2v-2.8h15.6L500.5,401.1L500.5,401.1z"/>
		<path class="st0" d="M516.1,406.4l0.1-2.5h-0.1l-1.6,2.5l-8.9,11.7h-1.8v-19.8h3.2v12.1l-0.1,2.3h0.2l1.5-2.5l8.9-12h1.9v19.9
			h-3.3L516.1,406.4L516.1,406.4z"/>
	</g>
	<g>
		<g>
			<path class="st0" d="M168.4,478.7l6.9,16.3l17.6,1.5c1.2,0.1,1.7,1.6,0.8,2.4l-13.4,11.6l4,17.3c0.3,1.2-1,2.1-2.1,1.5l-15.2-9.1
				l-15.2,9.1c-1.1,0.6-2.4-0.3-2.1-1.5l4-17.3l-13.4-11.6c-0.9-0.8-0.4-2.3,0.8-2.4l17.6-1.5l6.9-16.3
				C166.3,477.5,167.9,477.5,168.4,478.7z"/>
		</g>
		<g>
			<path class="st0" d="M231,478.7l6.9,16.3l17.6,1.5c1.2,0.1,1.7,1.6,0.8,2.4l-13.4,11.6l4,17.3c0.3,1.2-1,2.1-2.1,1.5l-15.2-9.1
				l-15.2,9.1c-1.1,0.6-2.4-0.3-2.1-1.5l4-17.3l-13.2-11.6c-0.9-0.8-0.4-2.3,0.8-2.4l17.6-1.5l6.9-16.3
				C228.9,477.5,230.5,477.5,231,478.7z"/>
		</g>
		<g>
			<path class="st0" d="M294.3,478.7l6.9,16.3l17.6,1.5c1.2,0.1,1.7,1.6,0.8,2.4l-13.4,11.6l4,17.3c0.3,1.2-1,2.1-2.1,1.5l-15.2-9.1
				l-15.2,9.1c-1.1,0.6-2.4-0.3-2.1-1.5l4-17.3l-13.4-11.6c-0.9-0.8-0.4-2.3,0.8-2.4l17.6-1.5l6.9-16.3
				C292.2,477.5,293.8,477.5,294.3,478.7z"/>
		</g>
		<g>
			<path class="st0" d="M357.6,478.7l6.9,16.3l17.6,1.5c1.2,0.1,1.7,1.6,0.8,2.4l-13.4,11.6l4,17.3c0.3,1.2-1,2.1-2.1,1.5l-15.2-9.1
				l-15.2,9.1c-1.1,0.6-2.4-0.3-2.1-1.5l4-17.3l-13.4-11.6c-0.9-0.8-0.4-2.3,0.8-2.4l17.6-1.5l6.9-16.3
				C355.6,477.5,357.2,477.5,357.6,478.7z"/>
		</g>
		<g>
			<path class="st0" d="M421,478.7l6.9,16.3l17.6,1.5c1.2,0.1,1.7,1.6,0.8,2.4l-13.4,11.6l4,17.3c0.3,1.2-1,2.1-2.1,1.5l-15.2-9.1
				l-15.2,9.1c-1.1,0.6-2.4-0.3-2.1-1.5l4-17.3l-13.2-11.6c-0.9-0.8-0.4-2.3,0.8-2.4l17.6-1.5l6.9-16.3
				C418.9,477.5,420.5,477.5,421,478.7z"/>
		</g>
	</g>
	<g>
		<path class="st0" d="M81.7,618.4c0-8.1,1.7-14.3,5.1-18.6s8.3-6.5,14.6-6.5c3.4,0,6.4,0.6,8.9,1.8s4.6,2.9,6.2,5.1
			c1.6,2.2,2.9,4.8,3.6,7.9c0.8,3.1,1.2,6.5,1.2,10.3c0,8.1-1.7,14.3-5.2,18.6c-3.4,4.3-8.4,6.5-14.7,6.5c-3.4,0-6.3-0.6-8.8-1.8
			s-4.5-2.9-6.2-5.1c-1.6-2.2-2.9-4.8-3.6-7.9S81.7,622.2,81.7,618.4z M87.8,618.4c0,2.7,0.3,5.2,0.8,7.6c0.5,2.4,1.4,4.5,2.5,6.3
			s2.5,3.3,4.3,4.4c1.7,1.1,3.8,1.6,6.1,1.6c4.3,0,7.7-1.6,10.1-4.9c2.5-3.3,3.7-8.3,3.7-15.1c0-2.6-0.3-5.2-0.8-7.6
			c-0.5-2.4-1.4-4.6-2.5-6.4c-1.1-1.8-2.6-3.3-4.3-4.4c-1.7-1.1-3.8-1.6-6.2-1.6c-4.3,0-7.6,1.6-10,4.9S87.8,611.6,87.8,618.4z"/>
		<path class="st0" d="M146.2,642.9c-0.8,0.3-1.6,0.4-2.5,0.5c-0.9,0-1.6,0.1-2.3,0.1c-4.2,0-7.5-1.5-9.7-4.4
			c-2.3-3-3.4-7.5-3.4-13.7c0-5.9,1.2-10.4,3.7-13.4s6.1-4.5,10.8-4.5c1.3,0,2.4,0.1,3.3,0.3v-13.6h5.3v13.7
			c0.8-0.1,1.6-0.2,2.2-0.3c0.6,0,1.3-0.1,1.9-0.1c4.6,0,8,1.3,10.3,4s3.5,7.1,3.5,13.2c0,2.9-0.3,5.5-0.9,7.9
			c-0.6,2.3-1.5,4.3-2.7,5.9c-1.2,1.6-2.7,2.9-4.4,3.7c-1.7,0.9-3.7,1.3-6,1.3c-0.4,0-1,0-1.8-0.1s-1.5-0.2-2-0.4v13.5h-5.3
			L146.2,642.9L146.2,642.9z M142.8,638.9c0.6,0,1.1,0,1.7-0.1c0.6,0,1.2-0.1,1.8-0.3v-26.2c-0.6-0.1-1.1-0.2-1.6-0.2
			s-1.1-0.1-1.8-0.1c-2.9,0-5.1,1.1-6.7,3.2c-1.6,2.2-2.4,5.5-2.4,10.1c0,1.9,0.2,3.7,0.5,5.4s0.9,3.1,1.6,4.3
			c0.7,1.2,1.7,2.2,2.8,2.8C140,638.6,141.3,638.9,142.8,638.9z M154.6,612c-0.6,0-1.1,0-1.5,0s-1,0.1-1.6,0.3v26.4
			c0.5,0.1,1,0.2,1.6,0.2s1.2,0,1.9,0c3,0,5.2-1.2,6.7-3.7s2.3-6,2.3-10.6c0-3.9-0.7-7-2-9.3C160.4,613.1,158,612,154.6,612z"/>
		<path class="st0" d="M199.5,622.1l0.2-4.3h-0.2l-2.8,4.4l-15.6,20.4h-3.2v-34.7h5.6v21.2l-0.2,4.1h0.3l2.7-4.3l15.6-21h3.3v34.7
			h-5.6v-20.5L199.5,622.1L199.5,622.1z"/>
		<path class="st0" d="M246.9,651.5h-3.8l-1-8.8h-26.4V608h5.6v29.8h15.1V608h5.6v29.8h5v13.7H246.9z"/>
		<path class="st0" d="M275.4,622.1l0.2-4.3h-0.2l-2.8,4.4L257,642.6h-3.2v-34.7h5.6v21.2l-0.2,4.1h0.3l2.7-4.3l15.6-21h3.3v34.7
			h-5.6L275.4,622.1L275.4,622.1z"/>
		<path class="st0" d="M291.1,610.5c1.8-1.1,3.8-1.8,6.1-2.4c2.3-0.5,4.8-0.8,7.3-0.8c2.4,0,4.3,0.3,5.8,1c1.5,0.6,2.6,1.5,3.3,2.5
			s1.3,2.2,1.5,3.4c0.3,1.2,0.4,2.5,0.4,3.7c0,2.8-0.1,5.5-0.2,8.1s-0.2,5.1-0.2,7.5c0,1.7,0.1,3.3,0.2,4.9c0.1,1.5,0.4,2.9,0.8,4.2
			H312l-1.5-4.9h-0.3c-0.4,0.6-0.9,1.3-1.6,1.9c-0.6,0.6-1.4,1.2-2.3,1.7s-1.9,0.9-3.1,1.2s-2.5,0.5-4,0.5s-2.9-0.2-4.1-0.7
			c-1.3-0.5-2.4-1.1-3.3-2s-1.7-1.9-2.2-3.1c-0.5-1.2-0.8-2.6-0.8-4.1c0-2,0.4-3.7,1.2-5.1c0.8-1.4,2-2.5,3.5-3.3s3.3-1.4,5.4-1.7
			s4.4-0.5,7-0.5c0.6,0,1.3,0,1.9,0s1.3,0,1.9,0.1c0.1-1.4,0.2-2.6,0.2-3.7c0-2.5-0.5-4.3-1.5-5.3s-2.9-1.5-5.6-1.5
			c-0.8,0-1.6,0.1-2.5,0.2s-1.8,0.3-2.8,0.5c-0.9,0.2-1.9,0.5-2.7,0.8c-0.9,0.3-1.6,0.7-2.3,1L291.1,610.5z M300.9,638.4
			c1.3,0,2.5-0.2,3.5-0.5s1.9-0.8,2.6-1.3s1.4-1.1,1.8-1.8c0.5-0.6,0.8-1.3,1.1-1.9v-5.8c-0.6,0-1.3-0.1-2-0.1s-1.3,0-2,0
			c-1.4,0-2.8,0.1-4.2,0.2c-1.4,0.2-2.6,0.5-3.6,0.9s-1.9,1-2.5,1.8s-0.9,1.7-0.9,2.9c0,1.6,0.6,3,1.7,4S299.1,638.4,300.9,638.4z"
			/>
		<path class="st0" d="M344.7,612.8h-10.1c-0.1,1.9-0.3,4-0.4,6.3c-0.1,2.2-0.3,4.5-0.6,6.7c-0.3,2.2-0.6,4.4-1.1,6.5
			s-1.1,3.9-1.8,5.4c-0.7,1.6-1.6,2.8-2.6,3.8c-1,0.9-2.3,1.4-3.7,1.4c-0.9,0-1.6,0-2.3-0.1c-0.6-0.1-1.2-0.3-1.7-0.5l0.8-4.7
			c0.6,0.2,1.2,0.3,1.8,0.3c0.9,0,1.8-0.4,2.5-1.2s1.4-2.3,1.9-4.5c0.6-2.2,1-5.2,1.4-9.1c0.4-3.9,0.6-9,0.8-15.2h20.7v34.7h-5.6
			L344.7,612.8L344.7,612.8z"/>
		<path class="st0" d="M366.5,621.2c1.1-0.2,2.2-0.3,3.2-0.4c1-0.1,2-0.1,2.9-0.1c2.4,0,4.4,0.3,6.1,0.8s3,1.3,4.1,2.2
			c1,0.9,1.8,2,2.3,3.3s0.7,2.6,0.7,4.1c0,4.2-1.3,7.3-3.8,9.2s-6.4,2.8-11.8,2.8c-3,0-6-0.1-9.2-0.4V608h5.6v13.2H366.5
			L366.5,621.2z M366.5,637.8c1.7,0.3,3.4,0.4,4.9,0.4c2.9,0,5.1-0.6,6.5-1.7c1.4-1.1,2.1-2.7,2.1-4.8c0-1.8-0.7-3.4-2-4.6
			c-1.3-1.2-3.4-1.8-6.3-1.8c-0.8,0-1.6,0-2.6,0.1c-0.9,0-1.8,0.2-2.6,0.4V637.8z"/>
		<path class="st0" d="M414.4,627.3h-15.7v15.3h-5.6v-34.7h5.6v14.5h15.7v-14.5h5.6v34.7h-5.6V627.3L414.4,627.3z"/>
		<path class="st0" d="M436.2,621.2c1.1-0.2,2.2-0.3,3.2-0.4c1-0.1,2-0.1,2.9-0.1c2.4,0,4.3,0.3,5.9,0.8s2.9,1.3,3.9,2.2
			s1.7,2,2,3.3c0.4,1.3,0.6,2.6,0.6,4.1c0,4.2-1.2,7.3-3.5,9.2s-6.1,2.8-11.3,2.8c-3,0-6-0.1-9.2-0.4V608h5.6v13.2H436.2
			L436.2,621.2z M436.2,637.8c1.7,0.3,3.4,0.4,4.9,0.4c2.9,0,5-0.6,6.1-1.7c1.2-1.1,1.7-2.7,1.7-4.8c0-1.8-0.6-3.4-1.7-4.6
			s-3.1-1.8-5.9-1.8c-0.8,0-1.6,0-2.6,0.1c-0.9,0-1.8,0.2-2.6,0.4v12L436.2,637.8L436.2,637.8z M460.2,608h5.6v34.7h-5.6V608z"/>
		<path class="st0" d="M498.1,622.1l0.2-4.3h-0.2l-2.8,4.4l-15.6,20.4h-3.2v-34.7h5.6v21.2l-0.2,4.1h0.3l2.7-4.3l15.6-21h3.3v34.7
			h-5.7L498.1,622.1L498.1,622.1z M484.4,593.9c0.5,2.1,1.3,3.6,2.4,4.4c1.1,0.8,2.4,1.3,3.9,1.3s2.8-0.4,4-1.3
			c1.2-0.9,1.9-2.3,2.4-4.3l4.2,1.3c-0.4,2.7-1.6,4.7-3.6,6.2c-2,1.4-4.3,2.2-7,2.2c-1.2,0-2.5-0.2-3.7-0.5s-2.3-0.8-3.3-1.5
			c-1-0.6-1.8-1.5-2.5-2.5s-1.2-2.2-1.4-3.6L484.4,593.9z"/>
		<path class="st0" d="M62.9,683.5c1.5-2.2,3.2-3.8,5.1-4.7s4.2-1.4,6.9-1.4c4.3,0,7.5,1.4,9.8,4.2s3.4,6.9,3.4,12.3
			c0,6.2-1.3,11-4,14.2s-6.4,4.8-11.1,4.8c-5.1,0-8.9-1.8-11.5-5.3c-2.5-3.5-3.8-9-3.8-16.6c0-4,0.2-7.4,0.6-10.2
			c0.4-2.8,1-5.2,1.7-7.1c0.8-1.9,1.7-3.5,2.8-4.6c1.1-1.2,2.3-2.1,3.7-2.7c1.4-0.7,2.9-1.1,4.5-1.4c1.6-0.3,3.4-0.5,5.2-0.7
			c2.4-0.2,4.3-0.5,5.7-0.8c1.4-0.3,2.5-0.8,3.3-1.6l0.6,5c-0.5,0.4-1,0.8-1.5,1c-0.6,0.3-1.2,0.5-2,0.7s-1.7,0.3-2.8,0.5
			c-1.1,0.1-2.3,0.3-3.8,0.3c-2,0.1-3.7,0.4-5.2,0.7s-2.8,1-3.9,2s-1.9,2.4-2.6,4.2c-0.6,1.8-1.1,4.2-1.3,7.3h0.2
			C62.9,683.6,62.9,683.5,62.9,683.5z M63.5,694.8c0,1.8,0.2,3.4,0.6,5.1c0.4,1.6,0.9,3,1.7,4.3c0.8,1.2,1.7,2.2,2.9,2.9
			c1.2,0.7,2.6,1,4.2,1c3.2,0,5.6-1.1,7.1-3.4c1.5-2.3,2.3-5.7,2.3-10.2c0-1.8-0.2-3.4-0.5-4.9s-0.8-2.8-1.5-3.9
			c-0.7-1.1-1.6-1.9-2.6-2.5c-1.1-0.6-2.3-0.9-3.8-0.9c-3.6,0-6.2,1-7.9,3.2S63.5,690.8,63.5,694.8z"/>
		<path class="st0" d="M96.9,677.4h3.8l1,4.2h0.3c1.1-1.6,2.4-2.9,4.1-3.7c1.7-0.9,3.6-1.3,5.8-1.3c4.6,0,8.1,1.4,10.3,4.1
			c2.3,2.7,3.4,7.2,3.4,13.4c0,2.9-0.4,5.5-1.1,7.9c-0.8,2.3-1.8,4.3-3.2,5.9c-1.4,1.6-3.1,2.9-5,3.7c-2,0.9-4.2,1.3-6.6,1.3
			c-1.7,0-3.1-0.1-4.1-0.3s-2.1-0.6-3.2-1.1v14.4h-5.6L96.9,677.4L96.9,677.4z M110.9,681.4c-2.4,0-4.2,0.6-5.6,1.8
			s-2.3,3.1-2.9,5.6V706c0.8,0.6,1.8,1.1,2.8,1.5c1.1,0.3,2.5,0.5,4.2,0.5c3.2,0,5.7-1.2,7.6-3.6c1.9-2.4,2.8-5.9,2.8-10.5
			c0-1.9-0.2-3.6-0.5-5.2c-0.3-1.5-0.8-2.9-1.6-4c-0.7-1.1-1.6-1.9-2.8-2.5C114,681.7,112.6,681.4,110.9,681.4z"/>
		<path class="st0" d="M132.5,694.7c0-5.9,1.3-10.4,3.9-13.5c2.6-3.1,6.4-4.7,11.3-4.7c2.6,0,4.8,0.4,6.8,1.3
			c1.9,0.9,3.5,2.1,4.8,3.7c1.2,1.6,2.2,3.5,2.8,5.8c0.6,2.2,0.9,4.7,0.9,7.5c0,5.9-1.3,10.4-3.9,13.5c-2.6,3.1-6.4,4.7-11.3,4.7
			c-2.6,0-4.8-0.4-6.8-1.3c-1.9-0.9-3.5-2.1-4.8-3.7c-1.2-1.6-2.2-3.5-2.8-5.8C132.8,699.9,132.5,697.4,132.5,694.7z M138.3,694.7
			c0,1.8,0.2,3.4,0.5,5.1c0.3,1.6,0.9,3,1.6,4.2c0.7,1.2,1.7,2.2,2.9,2.9s2.7,1.1,4.4,1.1c6.3,0,9.4-4.4,9.4-13.3
			c0-1.8-0.2-3.5-0.5-5.1s-0.9-3-1.6-4.2c-0.7-1.2-1.7-2.2-2.9-2.9s-2.7-1.1-4.4-1.1C141.4,681.3,138.3,685.8,138.3,694.7z"/>
		<path class="st0" d="M180.4,696.4h-3.2V712h-5.6v-34.7h5.6V693l3-1l11.1-14.7h6l-10.8,14l-2.9,2.3l3.6,2.8l11.6,15.7h-6.9
			L180.4,696.4z"/>
		<path class="st0" d="M229.4,709.3c-1.4,1.1-3.1,2-5.2,2.6c-2.1,0.6-4.3,1-6.7,1c-2.6,0-4.9-0.4-6.9-1.3c-1.9-0.9-3.5-2.1-4.8-3.7
			c-1.2-1.6-2.2-3.5-2.8-5.7s-0.9-4.7-0.9-7.5c0-5.9,1.3-10.4,4-13.5c2.6-3.1,6.4-4.7,11.3-4.7c1.6,0,3.1,0.2,4.7,0.5
			c1.6,0.3,3,1,4.2,2s2.3,2.3,3.1,4.1s1.2,4.1,1.2,7c0,1.5-0.1,3.2-0.4,5.1h-22.3c0,2,0.2,3.8,0.6,5.4c0.4,1.6,1.1,2.9,1.9,4
			c0.9,1.1,2,1.9,3.4,2.5s3.1,0.9,5.2,0.9c1.6,0,3.1-0.3,4.7-0.8c1.6-0.6,2.8-1.2,3.5-1.9L229.4,709.3z M217.5,681.4
			c-2.7,0-4.9,0.7-6.6,2.2c-1.6,1.4-2.6,3.9-2.9,7.4h17.2c0-3.5-0.7-6-2-7.4C221.8,682.1,219.9,681.4,217.5,681.4z"/>
		<path class="st0" d="M239.3,677.4h3.8l1,4.2h0.3c1.1-1.6,2.4-2.9,4.1-3.7c1.7-0.9,3.6-1.3,5.8-1.3c4.6,0,8.1,1.4,10.3,4.1
			c2.3,2.7,3.4,7.2,3.4,13.4c0,2.9-0.4,5.5-1.1,7.9c-0.8,2.3-1.8,4.3-3.2,5.9c-1.4,1.6-3.1,2.9-5,3.7c-2,0.9-4.2,1.3-6.6,1.3
			c-1.7,0-3.1-0.1-4.1-0.3s-2.1-0.6-3.2-1.1v14.4h-5.6v-48.5L239.3,677.4L239.3,677.4z M253.3,681.4c-2.4,0-4.2,0.6-5.6,1.8
			c-1.4,1.2-2.3,3.1-2.9,5.6V706c0.8,0.6,1.8,1.1,2.8,1.5c1.1,0.3,2.5,0.5,4.2,0.5c3.2,0,5.7-1.2,7.6-3.6c1.9-2.4,2.8-5.9,2.8-10.5
			c0-1.9-0.2-3.6-0.5-5.2c-0.3-1.5-0.8-2.9-1.6-4c-0.7-1.1-1.6-1.9-2.8-2.5C256.4,681.7,255,681.4,253.3,681.4z"/>
		<path class="st0" d="M316.3,682.2H301V712h-5.6v-34.7h26.4V712h-5.6v-29.8H316.3z"/>
		<path class="st0" d="M332.5,677.4h3.8l1,4.2h0.3c1.1-1.6,2.4-2.9,4.1-3.7c1.7-0.9,3.6-1.3,5.8-1.3c4.6,0,8.1,1.4,10.3,4.1
			c2.3,2.7,3.4,7.2,3.4,13.4c0,2.9-0.4,5.5-1.1,7.9c-0.8,2.3-1.8,4.3-3.2,5.9c-1.4,1.6-3.1,2.9-5,3.7c-2,0.9-4.2,1.3-6.6,1.3
			c-1.7,0-3.1-0.1-4.1-0.3s-2.1-0.6-3.2-1.1v14.4h-5.6v-48.5L332.5,677.4L332.5,677.4z M346.6,681.4c-2.4,0-4.2,0.6-5.6,1.8
			s-2.3,3.1-2.9,5.6V706c0.8,0.6,1.8,1.1,2.8,1.5c1.1,0.3,2.5,0.5,4.2,0.5c3.2,0,5.7-1.2,7.6-3.6c1.9-2.4,2.8-5.9,2.8-10.5
			c0-1.9-0.2-3.6-0.5-5.2c-0.3-1.5-0.8-2.9-1.6-4c-0.7-1.1-1.6-1.9-2.8-2.5C349.6,681.7,348.2,681.4,346.6,681.4z"/>
		<path class="st0" d="M368.1,694.7c0-5.9,1.3-10.4,3.9-13.5s6.4-4.7,11.3-4.7c2.6,0,4.8,0.4,6.8,1.3c1.9,0.9,3.5,2.1,4.8,3.7
			c1.2,1.6,2.2,3.5,2.8,5.8c0.6,2.2,0.9,4.7,0.9,7.5c0,5.9-1.3,10.4-3.9,13.5s-6.4,4.7-11.3,4.7c-2.6,0-4.8-0.4-6.8-1.3
			s-3.5-2.1-4.8-3.7c-1.2-1.6-2.2-3.5-2.8-5.8C368.4,699.9,368.1,697.4,368.1,694.7z M373.9,694.7c0,1.8,0.2,3.4,0.5,5.1
			c0.3,1.6,0.9,3,1.6,4.2s1.7,2.2,2.9,2.9c1.2,0.7,2.7,1.1,4.4,1.1c6.3,0,9.4-4.4,9.4-13.3c0-1.8-0.2-3.5-0.5-5.1s-0.9-3-1.6-4.2
			s-1.7-2.2-2.9-2.9c-1.2-0.7-2.7-1.1-4.4-1.1C377,681.3,373.9,685.8,373.9,694.7z"/>
		<path class="st0" d="M432.6,709.3c-1.4,1.1-3.1,2-5.2,2.6s-4.3,1-6.7,1c-2.6,0-4.9-0.4-6.9-1.3s-3.5-2.1-4.8-3.7
			c-1.2-1.6-2.2-3.5-2.8-5.7c-0.6-2.2-0.9-4.7-0.9-7.5c0-5.9,1.3-10.4,4-13.5c2.6-3.1,6.4-4.7,11.3-4.7c1.6,0,3.1,0.2,4.7,0.5
			s3,1,4.2,2s2.3,2.3,3.1,4.1c0.8,1.8,1.2,4.1,1.2,7c0,1.5-0.1,3.2-0.4,5.1h-22.3c0,2,0.2,3.8,0.6,5.4c0.4,1.6,1.1,2.9,1.9,4
			c0.9,1.1,2,1.9,3.4,2.5s3.1,0.9,5.2,0.9c1.6,0,3.1-0.3,4.7-0.8c1.6-0.6,2.8-1.2,3.5-1.9L432.6,709.3z M420.7,681.4
			c-2.7,0-4.9,0.7-6.6,2.2c-1.6,1.4-2.6,3.9-2.9,7.4h17.2c0-3.5-0.7-6-2-7.4C425,682.1,423.1,681.4,420.7,681.4z"/>
		<path class="st0" d="M451.3,696.4h-3.2V712h-5.6v-34.7h5.6V693l3-1l11.1-14.7h6l-10.8,14l-2.9,2.3l3.6,2.8l11.6,15.7h-6.9
			L451.3,696.4z"/>
		<path class="st0" d="M497.8,682.2h-10.9V712h-5.6v-29.8h-10.9v-4.9h27.3v4.9H497.8z"/>
		<path class="st0" d="M502.8,679.9c1.8-1.1,3.8-1.8,6.1-2.4c2.3-0.5,4.8-0.8,7.3-0.8c2.4,0,4.3,0.3,5.8,1c1.5,0.6,2.6,1.5,3.3,2.5
			c0.8,1,1.3,2.2,1.5,3.4c0.3,1.2,0.4,2.5,0.4,3.7c0,2.8-0.1,5.5-0.2,8.1c-0.1,2.6-0.2,5.1-0.2,7.5c0,1.7,0.1,3.3,0.2,4.9
			c0.1,1.5,0.4,2.9,0.8,4.2h-4.1l-1.5-4.9h-0.3c-0.4,0.6-0.9,1.3-1.6,1.9c-0.6,0.6-1.4,1.2-2.3,1.7c-0.9,0.5-1.9,0.9-3.1,1.2
			c-1.2,0.3-2.5,0.5-4,0.5s-2.9-0.2-4.1-0.7s-2.4-1.1-3.3-2s-1.7-1.9-2.2-3.1c-0.5-1.2-0.8-2.6-0.8-4.1c0-2,0.4-3.7,1.2-5.1
			c0.8-1.4,2-2.5,3.5-3.3s3.3-1.4,5.4-1.7c2.1-0.3,4.4-0.5,7-0.5c0.6,0,1.3,0,1.9,0s1.3,0,1.9,0.1c0.1-1.4,0.2-2.6,0.2-3.7
			c0-2.5-0.5-4.3-1.5-5.3s-2.9-1.5-5.6-1.5c-0.8,0-1.6,0.1-2.5,0.2c-0.9,0.1-1.8,0.3-2.8,0.5c-0.9,0.2-1.9,0.5-2.7,0.8
			c-0.9,0.3-1.6,0.7-2.3,1L502.8,679.9z M512.6,707.8c1.3,0,2.5-0.2,3.5-0.5s1.9-0.8,2.6-1.3c0.7-0.5,1.4-1.1,1.8-1.8
			c0.5-0.6,0.8-1.3,1.1-1.9v-5.8c-0.6,0-1.3-0.1-2-0.1s-1.3,0-2,0c-1.4,0-2.8,0.1-4.2,0.2c-1.4,0.2-2.6,0.5-3.6,0.9s-1.9,1-2.5,1.8
			s-0.9,1.7-0.9,2.9c0,1.6,0.6,3,1.7,4C509.3,707.2,510.8,707.8,512.6,707.8z"/>
	</g>
	<g>
		<polygon class="st0" points="584.6,0 584.1,0 584.1,962.2 296.6,800.9 0.5,962.2 0.5,0 0,0 0,963 296.6,801.5 584.6,963 584.6,0 
					"/>
	</g>
</g>
</svg>
